#N canvas 499 62 490 739 12;
#X obj 222 405 vline~;
#X obj 188 644 *~;
#X msg 222 384 0 \, 1 \$1 0;
#X obj 174 364 t f f;
#X obj 174 450 / 1000;
#X obj 206 505 *~;
#X obj 222 445 *~;
#X obj 174 472 sig~;
#X obj 174 301 f;
#X obj 206 550 +~;
#X obj 174 147 inlet;
#X obj 222 484 *~ 1;
#X obj 174 336 * 1;
#X obj 206 591 +~;
#X obj 188 665 throw~ bus;
#X obj 312 357 r pitch;
#X obj 245 465 r mypitch;
#X obj 222 571 r mystart;
#X obj 206 616 tabread4~ sample;
#X obj 222 529 r grainstart;
#X obj 312 423 * 44100;
#X floatatom 212 273 5 0 0 0 - - -;
#X obj 212 213 r size;
#X obj 174 171 t b;
#X obj 49 496 *~ 441;
#X obj 49 517 tabread4~ hann;
#X text 171 56 A modified version of;
#X text 170 79 Andy Farnells grainvoice;
#X obj 312 381 +;
#X obj 376 362 r pitch_lfo;
#X obj 262 170 r size_lfo;
#X obj 212 249 +;
#X obj 262 219 t b f;
#X obj 262 194 * 1000;
#X connect 0 0 6 0;
#X connect 0 0 24 0;
#X connect 1 0 14 0;
#X connect 2 0 0 0;
#X connect 3 0 4 0;
#X connect 3 1 2 0;
#X connect 4 0 7 0;
#X connect 5 0 9 0;
#X connect 6 0 11 0;
#X connect 7 0 5 0;
#X connect 8 0 12 0;
#X connect 9 0 13 0;
#X connect 10 0 23 0;
#X connect 11 0 5 1;
#X connect 12 0 3 0;
#X connect 13 0 18 0;
#X connect 15 0 28 0;
#X connect 16 0 11 1;
#X connect 17 0 13 1;
#X connect 18 0 1 1;
#X connect 19 0 9 1;
#X connect 20 0 6 1;
#X connect 21 0 8 1;
#X connect 22 0 31 0;
#X connect 23 0 8 0;
#X connect 24 0 25 0;
#X connect 25 0 1 0;
#X connect 28 0 20 0;
#X connect 29 0 28 1;
#X connect 30 0 33 0;
#X connect 31 0 21 0;
#X connect 32 0 31 0;
#X connect 32 1 31 1;
#X connect 33 0 32 0;
