#N canvas 61 135 1341 572 12;
#N canvas 381 303 461 384 hann_env 0;
#N canvas 0 22 450 300 (subpatch) 0;
#X array hann 441 float 1;
#A 0 5.58197e-05 0.000211179 0.000466049 0.000820369 0.00127408 0.00182706
0.00248876 0.00325206 0.00411421 0.00507513 0.00613457 0.00729233 0.00855508
0.00992075 0.0113839 0.0129444 0.0146018 0.0163559 0.0182106 0.0201685
0.022222 0.0243706 0.0266139 0.0289515 0.0313846 0.0339206 0.0365494
0.0392705 0.0420832 0.0449871 0.0479817 0.0510767 0.0542615 0.0575351
0.0608967 0.0643458 0.0678816 0.0715112 0.0752289 0.079031 0.082917
0.086886 0.0909373 0.0950752 0.0992984 0.103601 0.107983 0.112443 0.11698
0.121597 0.126294 0.131067 0.135912 0.140831 0.14582 0.150881 0.15602
0.161227 0.166501 0.171841 0.177247 0.182717 0.188257 0.19386 0.199524
0.205248 0.211031 0.216871 0.222772 0.22873 0.234743 0.240808 0.246925
0.253092 0.259311 0.265581 0.271898 0.27826 0.284667 0.291116 0.297608
0.304145 0.31072 0.317332 0.323982 0.330666 0.337384 0.344138 0.350924
0.357738 0.364582 0.371452 0.378348 0.38527 0.392216 0.399183 0.406171
0.413177 0.4202 0.427241 0.434296 0.441365 0.448445 0.455536 0.462635
0.469742 0.476856 0.483974 0.491096 0.498219 0.505343 0.512465 0.519585
0.526701 0.533812 0.540915 0.548011 0.555097 0.562171 0.569233 0.57628
0.583313 0.590329 0.597327 0.604304 0.611259 0.618192 0.625102 0.631987
0.638845 0.645674 0.652473 0.659241 0.665977 0.67268 0.679349 0.685981
0.692573 0.699126 0.70564 0.712113 0.718544 0.72493 0.731267 0.737558
0.743801 0.749996 0.756142 0.762236 0.768272 0.774255 0.780182 0.786054
0.791869 0.797626 0.803318 0.808948 0.814517 0.820022 0.825464 0.830842
0.836149 0.841386 0.846554 0.851654 0.856683 0.861642 0.866525 0.87133
0.876061 0.880717 0.885297 0.8898 0.894225 0.898563 0.902821 0.906999
0.911096 0.915111 0.919044 0.922885 0.926639 0.930309 0.933894 0.937391
0.940802 0.944118 0.947342 0.950477 0.953522 0.956477 0.959341 0.962108
0.964778 0.967354 0.969838 0.972228 0.974525 0.976724 0.978819 0.980819
0.982723 0.984531 0.986243 0.987857 0.989363 0.990772 0.992083 0.993295
0.99441 0.995426 0.996334 0.997141 0.997848 0.998457 0.998966 0.999376
0.99968 0.999879 0.999978 0.999978 0.999879 0.999679 0.999376 0.998966
0.998457 0.997848 0.99714 0.996333 0.995426 0.994409 0.993295 0.992082
0.990771 0.989362 0.987857 0.986242 0.98453 0.982722 0.980818 0.978818
0.976722 0.974523 0.972227 0.969837 0.967353 0.964776 0.962107 0.959339
0.956475 0.95352 0.950475 0.94734 0.944116 0.9408 0.937389 0.933891
0.930307 0.926637 0.922882 0.919042 0.915109 0.911094 0.906997 0.902818
0.89856 0.894222 0.889797 0.885294 0.880714 0.876058 0.871327 0.866522
0.861639 0.85668 0.851651 0.846551 0.841383 0.836146 0.830839 0.825461
0.820019 0.814513 0.808945 0.803315 0.797622 0.791865 0.786051 0.780179
0.774251 0.768269 0.762232 0.756138 0.749993 0.743798 0.737554 0.731263
0.724926 0.71854 0.712109 0.705636 0.699123 0.692569 0.685977 0.679345
0.672676 0.665973 0.659237 0.652469 0.64567 0.638841 0.631983 0.625098
0.618188 0.611255 0.604299 0.597323 0.590325 0.583309 0.576276 0.569229
0.562167 0.555093 0.548007 0.540911 0.533807 0.526697 0.519581 0.512461
0.505338 0.498215 0.491092 0.48397 0.476852 0.469738 0.462631 0.455531
0.448441 0.441361 0.434292 0.427236 0.420196 0.413173 0.406167 0.399179
0.392212 0.385266 0.378344 0.371448 0.364578 0.357734 0.350919 0.344134
0.33738 0.330662 0.323978 0.317328 0.310716 0.304141 0.297605 0.291112
0.284663 0.278257 0.271894 0.265578 0.259307 0.253088 0.246921 0.240804
0.234739 0.228727 0.222768 0.216867 0.211027 0.205245 0.199521 0.193857
0.188254 0.182714 0.177243 0.171838 0.166497 0.161223 0.156016 0.150878
0.145817 0.140827 0.135909 0.131063 0.126291 0.121593 0.116977 0.11244
0.10798 0.103598 0.0992954 0.0950722 0.0909344 0.086883 0.0829141 0.0790282
0.075226 0.0715085 0.0678789 0.0643432 0.0608941 0.0575325 0.054259
0.0510742 0.0479794 0.0449848 0.042081 0.0392683 0.0365473 0.0339186
0.0313826 0.0289496 0.026612 0.0243689 0.0222203 0.0201669 0.018209
0.0163543 0.0146004 0.012943 0.0113826 0.00991952 0.00855398 0.00729129
0.00613356 0.00507423 0.00411341 0.00325134 0.00248814 0.00182652 0.00127363
0.000820011 0.00046578 0.00021103 5.57601e-05 0;
#X coords 0 1 440 0 200 140 1 0 0;
#X restore 204 201 graph;
#X text 184 331 0;
#X text 183 194 1;
#X obj 52 217 cos~;
#X obj 52 240 *~ -0.5;
#X obj 52 265 +~ 0.5;
#X msg 52 140 0 \, 1 10;
#X obj 52 188 vline~;
#X text 200 344 0;
#X text 389 346 441;
#X obj 18 93 bng 15 250 50 0 empty empty empty 17 7 0 10 -262144 -1
-1;
#X msg 276 108 441;
#X obj 52 307 tabwrite~ hann;
#X obj 276 133 array size hann;
#X text 43 92 Hann window;
#X obj 18 66 loadbang;
#X text 18 22 Autogenerate a Hanning window for 10 ms:;
#X text 118 140 10 ms = 441 samples;
#X connect 3 0 4 0;
#X connect 4 0 5 0;
#X connect 5 0 12 0;
#X connect 6 0 7 0;
#X connect 7 0 3 0;
#X connect 10 0 6 0;
#X connect 10 0 11 0;
#X connect 10 0 12 0;
#X connect 11 0 13 0;
#X connect 15 0 10 0;
#X restore 231 536 pd hann_env;
#X obj 41 26 hradio 30 1 0 6 scroll_sound scroll_sound_rcv (1-6)__scroll_sound
0 -8 0 12 -159808 -203904 -45076 5;
#X obj 239 29 bng 25 250 50 0 load_sound load_sound_rcv (l)__load_sound
27 12 0 12 -203904 -159808 -45076;
#X obj 39 91 cnv 15 312 140 empty empty empty 20 12 0 14 -261682 -66577
0;
#N canvas 380 132 661 449 loadsound 0;
#X msg 413 174 sounds/\$1.wav;
#X floatatom 413 149 5 0 0 0 - - -;
#X obj 50 136 openpanel;
#X obj 245 328 soundfiler;
#X obj 50 109 r load_sound;
#X obj 413 100 r scroll_sound;
#X obj 413 124 + 1;
#X floatatom 245 352 8 0 0 0 - - -;
#X obj 245 377 s samplelength;
#X obj 413 201 symbol;
#X msg 50 166 read -resize \$1 sample;
#X msg 413 226 read -resize \$1 sample;
#X obj 255 98 r sampleload;
#X text 48 85 Load your own sound:;
#X text 413 46 Scroll through sounds:;
#X text 411 65 (1-6.wav in files subdir);
#X text 251 67 Autoload 1.wav;
#X obj 261 220 s sampleload;
#X floatatom 261 185 5 0 0 0 - - -;
#X connect 0 0 9 0;
#X connect 1 0 0 0;
#X connect 2 0 10 0;
#X connect 3 0 7 0;
#X connect 4 0 2 0;
#X connect 5 0 6 0;
#X connect 6 0 1 0;
#X connect 7 0 8 0;
#X connect 9 0 11 0;
#X connect 10 0 3 0;
#X connect 11 0 3 0;
#X connect 12 0 1 0;
#X connect 18 0 17 0;
#X restore 139 536 pd loadsound;
#X obj 43 252 hsl 308 15 0 1 0 0 locator locator_rcv locator -2 -8
0 10 -262144 -1 -1 23934 1;
#N canvas 259 121 871 699 granulizer 0;
#N canvas 406 145 693 690 autoplay 0;
#X obj 465 508 spigot;
#X obj 543 223 sel 1;
#X obj 402 278 f;
#X obj 302 549 spigot;
#X obj 105 383 - 1;
#X obj 105 405 abs;
#X obj 104 430 tgl 15 0 empty empty empty 17 7 0 10 -262144 -1 -1 1
1;
#X obj 164 359 sel 0;
#X obj 173 415 f;
#X floatatom 94 71 10 0 0 0 - - -;
#X obj 94 90 / 44.1;
#X floatatom 94 112 10 0 0 0 - - -;
#X floatatom 94 157 15 0 0 0 - - -;
#X obj 94 135 expr 1000/$f1;
#X obj 500 189 t f f;
#X floatatom 414 300 10 0 0 0 - - -;
#X obj 93 202 t b f;
#X obj 109 326 r freeze;
#X obj 94 49 r samplelength;
#X floatatom 465 529 10 0 0 0 - - -;
#X obj 215 219 * 4;
#X obj 215 131 r speed;
#X obj 500 146 r autoplay;
#X obj 420 221 r locator;
#X obj 328 437 snapshot~;
#X obj 419 378 tgl 15 0 empty empty empty 17 7 0 10 -262144 -1 -1 1
1;
#X obj 419 398 metro 10;
#X obj 419 354 loadbang;
#X floatatom 328 475 10 0 0 0 - - -;
#X obj 302 611 s locator_rcv;
#X obj 181 256 *;
#X obj 319 368 phasor~ 0.2;
#X text 309 36 Autoplay function;
#X text 310 58 with freeze option;
#X obj 273 97 r speed_lfo;
#X obj 215 194 +;
#X obj 273 155 t b f;
#X obj 273 126 * 2;
#X connect 0 0 3 0;
#X connect 0 0 19 0;
#X connect 1 0 2 0;
#X connect 2 0 15 0;
#X connect 2 0 31 1;
#X connect 3 0 8 1;
#X connect 3 0 29 0;
#X connect 4 0 5 0;
#X connect 5 0 6 0;
#X connect 6 0 3 1;
#X connect 7 0 8 0;
#X connect 8 0 31 1;
#X connect 9 0 10 0;
#X connect 10 0 11 0;
#X connect 11 0 13 0;
#X connect 12 0 16 0;
#X connect 13 0 12 0;
#X connect 14 0 0 1;
#X connect 14 1 1 0;
#X connect 16 0 30 0;
#X connect 16 1 30 1;
#X connect 17 0 4 0;
#X connect 17 0 7 0;
#X connect 18 0 9 0;
#X connect 20 0 30 0;
#X connect 21 0 35 0;
#X connect 22 0 14 0;
#X connect 23 0 2 1;
#X connect 24 0 28 0;
#X connect 25 0 26 0;
#X connect 26 0 24 0;
#X connect 27 0 25 0;
#X connect 28 0 0 0;
#X connect 30 0 31 0;
#X connect 31 0 24 0;
#X connect 34 0 37 0;
#X connect 35 0 20 0;
#X connect 36 0 35 0;
#X connect 36 1 35 1;
#X connect 37 0 36 0;
#X restore 566 84 pd autoplay;
#X obj 48 213 metro 1000;
#X obj 126 158 * 1000;
#X obj 48 240 random 100;
#X floatatom 48 261 5 0 0 0 - - -;
#X obj 53 314 < 100;
#X obj 53 342 tgl 15 0 empty empty empty 17 7 0 10 -262144 -1 -1 0
1;
#X obj 53 371 sel 1;
#X obj 53 417 bng 15 250 50 0 empty empty empty 17 7 0 10 -262144 -1
-1;
#X obj 288 249 * 100;
#X floatatom 126 182 5 0 0 0 - - -;
#X obj 48 131 r on_off;
#X obj 48 159 tgl 15 0 empty empty empty 17 7 0 10 -262144 -1 -1 1
1;
#X obj 48 189 change;
#X obj 126 35 r density;
#X obj 137 390 r one_grain;
#X obj 288 190 r chance;
#X msg 55 611 next 1;
#X obj 55 641 clone grain3 16 \$0;
#X obj 79 546 random 10000;
#X obj 79 570 s mystart;
#X obj 182 585 + 1;
#X obj 182 564 / 10000;
#X obj 182 543 random 200;
#X obj 182 609 s mypitch;
#X obj 341 526 s grainstart;
#X obj 357 483 f;
#X obj 327 460 t f b;
#X obj 341 504 *;
#X obj 327 398 r locator;
#X obj 373 461 r samplelength;
#X obj 571 550 dac~;
#X obj 598 279 rev3~ 95 90;
#X obj 565 223 catch~ bus;
#X obj 292 64 r overlap;
#X obj 292 131 /;
#X obj 292 107 t b f;
#X obj 260 64 / 2;
#X obj 171 205 metro 100;
#X obj 260 42 r size;
#X obj 198 114 r on_off;
#X obj 198 142 tgl 15 0 empty empty empty 17 7 0 10 -262144 -1 -1 1
1;
#X obj 198 172 change;
#X obj 545 398 +~;
#X obj 625 401 +~;
#X obj 751 196 vsl 15 128 0 1 0 0 empty volume empty 0 -9 0 10 -262144
-1 -1 8900 1;
#X obj 751 332 * 0.8;
#X obj 545 422 *~ 0.8;
#X obj 625 425 *~ 0.8;
#X text 26 108 Autoplay:;
#X text 125 11 Density:;
#X text 256 20 Overlap:;
#X text 287 169 Chance:;
#X text 136 366 One grain bang:;
#X text 326 375 Grainstart:;
#X text 565 58 Autoplay subpatch:;
#X text 565 189 Master bus w/reverb:;
#X text 46 477 Grain subpatch from Farnell:;
#X text 78 503 with individual randomization;
#X text 78 519 for start and pitch.;
#X text 291 309 ¡¡ Keep Samplerate @ 44.1kHz !!;
#X obj 684 499 r mute;
#X obj 684 547 abs;
#X obj 684 573 tgl 15 0 empty empty empty 17 7 0 10 -262144 -1 -1 1
1;
#X obj 684 523 - 1;
#X obj 546 488 *~;
#X obj 609 487 *~;
#X text 683 470 mute:;
#X obj 327 431 +;
#X obj 399 412 r locator_lfo;
#X obj 126 127 +;
#X obj 144 56 r density_lfo;
#X obj 144 101 t b f;
#X obj 144 80 / 2;
#X obj 288 225 +;
#X obj 355 167 r chance_lfo;
#X obj 355 191 t b f;
#X connect 1 0 3 0;
#X connect 2 0 10 0;
#X connect 3 0 4 0;
#X connect 4 0 5 0;
#X connect 5 0 6 0;
#X connect 6 0 7 0;
#X connect 7 0 8 0;
#X connect 8 0 17 0;
#X connect 8 0 19 0;
#X connect 8 0 23 0;
#X connect 9 0 5 1;
#X connect 10 0 1 1;
#X connect 11 0 12 0;
#X connect 12 0 13 0;
#X connect 13 0 1 0;
#X connect 14 0 70 0;
#X connect 15 0 8 0;
#X connect 16 0 74 0;
#X connect 17 0 18 0;
#X connect 19 0 20 0;
#X connect 21 0 24 0;
#X connect 22 0 21 0;
#X connect 23 0 22 0;
#X connect 26 0 28 1;
#X connect 27 0 28 0;
#X connect 27 1 26 0;
#X connect 28 0 25 0;
#X connect 29 0 68 0;
#X connect 30 0 26 1;
#X connect 32 0 43 1;
#X connect 32 1 44 1;
#X connect 33 0 32 0;
#X connect 33 0 43 0;
#X connect 33 0 44 0;
#X connect 34 0 36 0;
#X connect 35 0 38 1;
#X connect 36 0 35 0;
#X connect 36 1 35 1;
#X connect 37 0 35 0;
#X connect 38 0 3 0;
#X connect 39 0 37 0;
#X connect 40 0 41 0;
#X connect 41 0 42 0;
#X connect 42 0 38 0;
#X connect 43 0 47 0;
#X connect 44 0 48 0;
#X connect 45 0 46 0;
#X connect 46 0 48 1;
#X connect 46 0 47 1;
#X connect 47 0 65 0;
#X connect 48 0 66 0;
#X connect 61 0 64 0;
#X connect 62 0 63 0;
#X connect 63 0 66 1;
#X connect 63 0 65 1;
#X connect 64 0 62 0;
#X connect 65 0 31 0;
#X connect 66 0 31 1;
#X connect 68 0 27 0;
#X connect 69 0 68 1;
#X connect 70 0 2 0;
#X connect 71 0 73 0;
#X connect 72 0 70 0;
#X connect 72 1 70 1;
#X connect 73 0 72 0;
#X connect 74 0 9 0;
#X connect 75 0 76 0;
#X connect 76 0 74 0;
#X connect 76 1 74 1;
#X restore 40 536 pd granulizer;
#X obj 441 173 tgl 40 0 autoplay autoplay_rcv (p)__play_(autoscroll)
45 18 0 15 -262130 -260097 -83269 1 1;
#X obj 440 273 tgl 40 0 freeze freeze_rcv (f)__freeze 45 18 0 15 -204800
-4160 -13330 0 1;
#X obj 443 239 hsl 128 15 0 1 0 0 speed speed_rcv speed -2 -8 0 10
-262144 -1 -1 1791 1;
#X obj 437 70 tgl 80 0 on_off on_off_rcv (o)__auto_grainbangs 0 -17
0 18 -260097 -257985 -86853 1 1;
#X obj 42 330 hsl 308 15 0 1 0 0 density density_rcv density -2 -8
0 10 -262144 -1 -1 14183 1;
#X obj 42 368 hsl 308 15 0 1 0 0 chance chance_rcv chance -2 -8 0 10
-262144 -1 -1 8381 1;
#X obj 759 102 bng 50 250 50 0 one_grain space_rcv (space)__one_grain_bang!
55 25 0 16 -203904 -4160 -13330;
#X obj 43 406 hsl 308 15 0.1 2 0 0 pitch pitch_rcv pitch -2 -8 0 10
-262144 -1 -1 18000 1;
#X obj 44 481 hsl 308 15 0 5000 0 0 size size_rcv size -2 -8 0 10 -262144
-1 -1 1000 1;
#X obj 43 444 hsl 308 15 0.1 2 0 0 overlap overlap_rcv overlap -2 -8
0 10 -262144 -1 -1 14332 1;
#N canvas 1020 253 370 356 load 0;
#X obj 43 27 loadbang;
#X msg 223 77 \; scroll_sound 0;
#X obj 223 46 delay 500;
#X msg 43 56 \; pd dsp 1 \; sample_seconds_rcv 10 \; pitch_rcv 0.25
\; size_rcv 1700 \; locator_rcv 0.5 \; speed_rcv 0.1 \; freeze_rcv
0 \; autoplay_rcv 0 \; on_off_rcv 0 \; volume_rcv 0.6 \; density_rcv
0.2 \; chance_rcv 0.8 \; overlap_rcv 0.55 \; keyboard_rcv 1 \; mute_rcv
0 \; sampleload 1 \; input_gain_rcv 1.6 \; load 1 \;;
#X connect 0 0 3 0;
#X connect 0 0 2 0;
#X connect 2 0 1 0;
#X restore 316 536 pd load;
#X obj 437 351 vsl 64 128 0 1 0 0 volume volume_rcv volume 14 -9 0
10 -162280 -260097 -1 8920 1;
#N canvas 256 179 1014 569 keys 0;
#X obj 118 124 key;
#X floatatom 118 172 5 0 0 0 - - -;
#X obj 118 149 spigot;
#X obj 411 58 tgl 15 0 empty keyboard empty 17 7 0 10 -262144 -1 -1
0 1;
#X obj 574 143 keyname;
#X floatatom 576 207 5 0 0 0 - - -;
#X symbolatom 626 206 10 0 0 0 - - -;
#X obj 576 181 spigot;
#X obj 626 180 spigot;
#N canvas 615 170 422 660 p-wheel 0;
#X obj 71 307 vsl 15 128 -10 10 0 0 empty empty empty 0 -9 0 10 -262144
-1 -1 6350 1;
#X floatatom 71 277 5 0 0 0 - - -;
#X obj 163 77 key;
#X floatatom 163 129 5 0 0 0 - - -;
#X obj 163 102 spigot;
#X obj 202 80 tgl 15 0 empty empty empty 17 7 0 10 -262144 -1 -1 0
1;
#X obj 172 324 vline~;
#X obj 172 365 snapshot~;
#X obj 232 310 tgl 15 0 empty empty empty 17 7 0 10 -262144 -1 -1 1
1;
#X obj 172 213 keyup;
#X obj 232 333 metro 50;
#X obj 232 284 loadbang;
#X floatatom 172 413 5 0 0 0 - - -;
#X obj 172 389 / 100;
#X obj 234 433 r pitch;
#X obj 172 483 +;
#X obj 172 571 s pitch_rcv;
#X msg 114 212 10 2000;
#X msg 234 213 -10 2000;
#X msg 172 238 0 200;
#X obj 172 516 min 2;
#X obj 172 540 max 0.1;
#X obj 202 54 r keyboard;
#X text 26 76 a = pitch-up;
#X text 25 93 s = pitch-down;
#X text 22 44 "Pitch Wheel";
#X obj 163 155 select 119 115;
#X obj 59 189 s w_rcv;
#X obj 298 191 s s_rcv;
#X connect 1 0 0 0;
#X connect 2 0 4 0;
#X connect 3 0 26 0;
#X connect 4 0 3 0;
#X connect 5 0 4 1;
#X connect 6 0 7 0;
#X connect 7 0 1 0;
#X connect 7 0 13 0;
#X connect 8 0 10 0;
#X connect 9 0 19 0;
#X connect 10 0 7 0;
#X connect 11 0 8 0;
#X connect 12 0 15 0;
#X connect 13 0 12 0;
#X connect 14 0 15 1;
#X connect 15 0 20 0;
#X connect 17 0 6 0;
#X connect 18 0 6 0;
#X connect 19 0 6 0;
#X connect 20 0 21 0;
#X connect 21 0 16 0;
#X connect 22 0 5 0;
#X connect 26 0 17 0;
#X connect 26 0 27 0;
#X connect 26 1 18 0;
#X connect 26 1 28 0;
#X restore 42 492 pd p-wheel;
#N canvas 733 192 450 300 random_loc 0;
#X obj 37 37 inlet;
#X obj 37 61 random 1000;
#X obj 37 85 / 1000;
#X obj 37 109 s locator_rcv \$1;
#X connect 0 0 1 0;
#X connect 1 0 2 0;
#X connect 2 0 3 0;
#X restore 620 465 pd random_loc;
#X obj 642 439 s shift_rcv;
#X obj 205 393 s @_rcv;
#N canvas 631 309 450 300 random_pitch 0;
#X obj 37 37 inlet;
#X obj 37 61 random 1000;
#X obj 37 109 + 0.1;
#X obj 37 171 s pitch_rcv \$1;
#X obj 37 85 / 500;
#X obj 37 133 min 2;
#X connect 0 0 1 0;
#X connect 1 0 4 0;
#X connect 2 0 5 0;
#X connect 4 0 2 0;
#X connect 5 0 3 0;
#X restore 205 430 pd random_pitch;
#X obj 577 307 select Shift_L Super_L;
#X obj 779 469 s super_rcv;
#X obj 412 411 r super_rcv;
#X obj 412 444 s one_grain;
#X obj 578 355 spigot;
#X obj 779 439 spigot;
#X obj 49 402 s space_rcv;
#X text 311 24 Key mappings for playing the patch:;
#X text 618 410 Shift (rnd loc):;
#X text 756 408 fn (randmized grainbang):;
#X text 7 235 l (load sound):;
#X text 15 379 space (grainbang):;
#X text 200 363 @ (rnd pitch):;
#X text 363 387 randomized grainbang hub:;
#X text 40 467 pitch-wheel subpatch:;
#X obj 546 240 - 1;
#X obj 546 264 abs;
#X obj 684 247 - 1;
#X obj 684 271 abs;
#X text 137 501 scrub subpatch:;
#N canvas 1018 60 422 660 scrub 0;
#X obj 71 307 vsl 15 128 -10 10 0 0 empty empty empty 0 -9 0 10 -262144
-1 -1 6350 1;
#X floatatom 71 277 5 0 0 0 - - -;
#X obj 163 77 key;
#X floatatom 163 129 5 0 0 0 - - -;
#X obj 163 102 spigot;
#X obj 202 80 tgl 15 0 empty empty empty 17 7 0 10 -262144 -1 -1 0
1;
#X obj 172 324 vline~;
#X obj 172 365 snapshot~;
#X obj 232 310 tgl 15 0 empty empty empty 17 7 0 10 -262144 -1 -1 1
1;
#X obj 172 213 keyup;
#X obj 232 333 metro 50;
#X obj 232 284 loadbang;
#X floatatom 172 413 5 0 0 0 - - -;
#X obj 172 389 / 100;
#X obj 172 483 +;
#X obj 59 189 s a_rcv;
#X obj 298 191 s d_rcv;
#X obj 202 54 r keyboard;
#X text 22 44 Scrub;
#X text 26 76 a = left;
#X text 25 93 d = right;
#X obj 172 571 s locator_rcv;
#X obj 234 433 r locator;
#X msg 172 238 0 300;
#X obj 172 513 expr if($f1 > 1 \, 0 \, $f1);
#X obj 172 540 expr if($f1 < 0 \, 1 \, $f1);
#X obj 163 155 select 97 100;
#X msg 110 212 -10 5000;
#X msg 233 213 10 5000;
#X connect 1 0 0 0;
#X connect 2 0 4 0;
#X connect 3 0 26 0;
#X connect 4 0 3 0;
#X connect 5 0 4 1;
#X connect 6 0 7 0;
#X connect 7 0 1 0;
#X connect 7 0 13 0;
#X connect 8 0 10 0;
#X connect 9 0 23 0;
#X connect 10 0 7 0;
#X connect 11 0 8 0;
#X connect 12 0 14 0;
#X connect 13 0 12 0;
#X connect 14 0 24 0;
#X connect 17 0 5 0;
#X connect 22 0 14 1;
#X connect 23 0 6 0;
#X connect 24 0 25 0;
#X connect 25 0 21 0;
#X connect 26 0 15 0;
#X connect 26 0 27 0;
#X connect 26 1 16 0;
#X connect 26 1 28 0;
#X connect 27 0 6 0;
#X connect 28 0 6 0;
#X restore 139 526 pd scrub;
#X obj 287 508 s record_rcv;
#X text 292 485 r (record):;
#X obj 817 131 key;
#X floatatom 817 179 5 0 0 0 - - -;
#X obj 817 156 spigot;
#X obj 817 201 select 49 50 51 52 53 54;
#X obj 817 298 s scroll_sound_rcv;
#X msg 817 236 0;
#X msg 846 236 1;
#X msg 875 236 2;
#X msg 904 236 3;
#X msg 933 236 4;
#X msg 962 236 5;
#X text 812 104 Scroll sounds:;
#X text 259 241 f (freeze):;
#X text 289 296 m (mute):;
#X obj 303 319 s mute_rcv;
#X obj 273 264 s freeze_rcv;
#X obj 121 328 s autoplay_rcv;
#X text 119 304 p (play):;
#X obj 10 261 s load_sound_rcv;
#X text 386 297 o (grainbangs):;
#X text 425 194 k (keyboard):;
#X obj 422 217 s keyboard_rcv;
#X obj 422 124 key;
#X floatatom 422 148 5 0 0 0 - - -;
#X obj 422 171 select 107;
#X obj 117 194 select 108 32 112 64 114 102 109 111;
#X obj 388 320 s on_off_rcv;
#X connect 0 0 2 0;
#X connect 1 0 62 0;
#X connect 2 0 1 0;
#X connect 3 0 2 1;
#X connect 3 0 7 1;
#X connect 3 0 8 1;
#X connect 3 0 39 1;
#X connect 4 0 7 0;
#X connect 4 1 8 0;
#X connect 5 0 29 0;
#X connect 5 0 31 0;
#X connect 6 0 14 0;
#X connect 7 0 5 0;
#X connect 8 0 6 0;
#X connect 14 0 18 0;
#X connect 14 1 19 0;
#X connect 16 0 13 0;
#X connect 16 0 10 0;
#X connect 16 0 17 0;
#X connect 18 0 10 0;
#X connect 18 0 11 0;
#X connect 19 0 15 0;
#X connect 29 0 30 0;
#X connect 30 0 18 1;
#X connect 31 0 32 0;
#X connect 32 0 19 1;
#X connect 37 0 39 0;
#X connect 38 0 40 0;
#X connect 39 0 38 0;
#X connect 40 0 42 0;
#X connect 40 1 43 0;
#X connect 40 2 44 0;
#X connect 40 3 45 0;
#X connect 40 4 46 0;
#X connect 40 5 47 0;
#X connect 42 0 41 0;
#X connect 43 0 41 0;
#X connect 44 0 41 0;
#X connect 45 0 41 0;
#X connect 46 0 41 0;
#X connect 47 0 41 0;
#X connect 59 0 60 0;
#X connect 60 0 61 0;
#X connect 61 0 58 0;
#X connect 62 0 55 0;
#X connect 62 1 20 0;
#X connect 62 2 53 0;
#X connect 62 3 12 0;
#X connect 62 3 13 0;
#X connect 62 4 35 0;
#X connect 62 5 52 0;
#X connect 62 6 51 0;
#X connect 62 7 63 0;
#X restore 373 536 pd keys;
#X obj 764 35 tgl 40 0 keyboard keyboard_rcv (k)__keyboard 45 18 0
15 -232576 -258113 -16662 0 1;
#X obj 603 353 bng 40 250 50 0 empty shift_rcv (shift)__random_loc
45 20 0 16 -262130 -260097 -83269;
#X obj 809 213 bng 40 250 50 0 empty w_rcv (w)__pitch_up -38 -14 0
16 -261682 -260097 -86853;
#X obj 809 253 bng 40 250 50 0 empty s_rcv (s)__pitch_down -45 52 0
16 -261682 -260097 -86853;
#X text 649 384 (Don't scroll meanwhile);
#X obj 848 355 bng 40 250 50 0 empty @_rcv (@)__random_pitch 45 20
0 16 -262130 -260097 -83269;
#X obj 601 442 bng 40 250 50 0 empty super_rcv (fn)__random_grainbang
45 20 0 16 -261234 -260097 -86853;
#X obj 42 290 hsl 308 15 0 1 0 0 rec_locator rec_locator_rcv recorder
-2 -8 0 10 -262144 -258113 -1 3807 1;
#X obj 569 82 tgl 30 0 record record_rcv (r)__record 34 15 0 10 -258113
-4032 -258113 0 1;
#X floatatom 568 120 5 0 0 1 sample_seconds sample_seconds_rcv sample_seconds
;
#X obj 769 253 bng 40 250 50 0 empty a_rcv scrub_left__(a) -155 20
0 16 -261682 -260097 -86853;
#X obj 849 253 bng 40 250 50 0 empty d_rcv (d)__scrub_right 45 20 0
16 -261682 -260097 -86853;
#X text 51 32 1;
#X text 82 32 2;
#X text 111 32 3;
#X text 141 32 4;
#X text 171 32 5;
#X text 201 32 6;
#X obj 511 451 tgl 30 0 mute mute_rcv mute__(m) -22 40 0 10 -66577
-228856 -33289 0 1;
#N canvas 0 25 450 278 (subpatch) 0;
#X array sample 185684 float 2;
#X coords 0 1 185684 -1 312 140 1 0 0;
#X restore 39 91 graph;
#X obj 545 87 vsl 10 48 0 4 0 0 input_gain input_gain_rcv gain -4 -9
0 8 -261234 -86277 -258113 1880 1;
#N canvas 292 44 1010 747 recorder 0;
#X obj 239 18 cnv 15 500 700 empty empty empty 20 12 0 14 -262130 -66577
0;
#X msg 353 376 stop, f 7;
#X msg 266 374 start \$1;
#X obj 324 254 *;
#X obj 301 287 f;
#X obj 299 255 bng 15 250 50 0 empty empty empty 17 7 0 10 -262144
-1 -1;
#X obj 291 111 sel 1 0;
#X obj 82 299 *~;
#X obj 389 425 line;
#X msg 621 397 \$1;
#X obj 558 350 pack 0 0;
#X obj 553 312 f;
#X obj 620 268 t b f;
#X obj 386 488 /;
#X floatatom 386 510 10 0 0 0 - - -;
#X msg 552 386 \$2 \$1;
#X obj 491 240 -;
#X obj 483 183 t b f;
#X obj 491 262 / 44.1;
#X obj 533 513 sel 1;
#X obj 533 536 spigot;
#X obj 532 561 bng 15 250 50 0 empty empty empty 17 7 0 10 -262144
-1 -1;
#X msg 562 621 0;
#X obj 541 682 f;
#X obj 627 648 / 44.1;
#X obj 121 300 *~;
#X obj 815 208 * 44100;
#X floatatom 815 184 5 0 0 0 - - -;
#X obj 852 283 % 64;
#X obj 834 314 -;
#X obj 814 232 int;
#X floatatom 833 343 15 0 0 0 - - -;
#X obj 293 180 delay 30;
#X obj 353 324 delay 30;
#X obj 541 595 t b b b;
#X msg 593 622 0;
#X obj 814 254 t b f f;
#X obj 820 397 f;
#X obj 815 161 r sample_seconds;
#X obj 820 423 s samplelength;
#X obj 626 618 r samplelength;
#X obj 601 493 r record;
#X obj 592 317 r samplelength;
#X obj 408 118 r samplelength;
#X obj 288 86 r record;
#X obj 145 167 r record;
#X obj 405 456 r samplelength;
#X obj 77 168 adc~;
#X obj 81 573 tabwrite~ sample;
#X obj 861 389 array size sample;
#X obj 320 216 r rec_locator;
#X obj 365 577 s rec_locator_rcv;
#X obj 785 114 r record;
#X obj 785 146 bng 15 250 50 0 empty empty empty 17 7 0 10 -262144
-1 -1;
#X obj 758 316 delay 5;
#X obj 80 452 *~;
#X obj 533 491 > 0.99;
#X obj 111 394 r input_gain;
#X text 383 64 Granular Polyphonic;
#X text 383 46 Reworked from Yann Seznec's;
#X text 383 27 Recorder locator functionality;
#X connect 1 0 8 0;
#X connect 1 0 48 0;
#X connect 2 0 48 0;
#X connect 3 0 4 1;
#X connect 3 0 17 0;
#X connect 4 0 2 0;
#X connect 4 0 12 0;
#X connect 5 0 4 0;
#X connect 6 0 32 0;
#X connect 6 1 33 0;
#X connect 7 0 55 0;
#X connect 8 0 13 0;
#X connect 9 0 8 0;
#X connect 10 0 15 0;
#X connect 11 0 10 0;
#X connect 12 0 11 0;
#X connect 12 1 9 0;
#X connect 13 0 14 0;
#X connect 14 0 51 0;
#X connect 14 0 56 0;
#X connect 15 0 8 0;
#X connect 16 0 18 0;
#X connect 17 0 16 0;
#X connect 17 1 16 1;
#X connect 18 0 11 1;
#X connect 19 0 20 0;
#X connect 20 0 21 0;
#X connect 21 0 34 0;
#X connect 22 0 2 0;
#X connect 23 0 10 0;
#X connect 24 0 23 1;
#X connect 25 0 55 0;
#X connect 26 0 30 0;
#X connect 27 0 26 0;
#X connect 28 0 29 1;
#X connect 29 0 31 0;
#X connect 30 0 36 0;
#X connect 31 0 37 1;
#X connect 31 0 49 0;
#X connect 32 0 5 0;
#X connect 33 0 1 0;
#X connect 34 0 23 0;
#X connect 34 1 22 0;
#X connect 34 2 35 0;
#X connect 35 0 9 0;
#X connect 36 0 54 0;
#X connect 36 1 29 0;
#X connect 36 2 28 0;
#X connect 37 0 39 0;
#X connect 38 0 27 0;
#X connect 40 0 24 0;
#X connect 41 0 20 1;
#X connect 42 0 10 1;
#X connect 43 0 3 1;
#X connect 43 0 16 0;
#X connect 44 0 6 0;
#X connect 45 0 7 1;
#X connect 45 0 25 1;
#X connect 46 0 13 1;
#X connect 47 0 7 0;
#X connect 47 1 25 0;
#X connect 50 0 3 0;
#X connect 52 0 53 0;
#X connect 53 0 27 0;
#X connect 54 0 37 0;
#X connect 55 0 48 0;
#X connect 56 0 19 0;
#X connect 57 0 55 1;
#X restore 430 536 pd recorder;
#X obj 1090 1 cnv 15 250 570 empty empty empty 20 12 0 14 -233017 -66577
0;
#X text 932 538 Kristian Wentzel 2021;
#X obj 1116 36 vradio 40 1 0 6 presets empty Presets -20 -20 0 22 -191407
-99865 -99865 4;
#X text 1164 89 "I'm Writing This Book";
#X text 1163 46 "Poly-Rythmic Pad";
#X text 1165 168 "Shake Your Egg";
#X text 1165 128 "Drones Pouring Drink";
#X text 1163 199 "The Princess is in;
#X text 1170 216 Another Castle!";
#X text 1169 248 "War on Lice";
#X obj 1115 287 cnv 15 74 19 empty empty empty 20 12 0 14 -262130 -66577
0;
#N canvas 308 161 994 407 presets 0;
#X obj 438 26 r presets;
#X obj 438 67 select 0 1 2 3 4 5;
#X msg 192 140 \; on_off_rcv 1 \; autoplay_rcv 1 \; freeze_rcv 1 \;
speed_rcv 1 \; scroll_sound_rcv 2 \; locator_rcv 0.39 \; density_rcv
0.104 \; chance_rcv 0.097 \; pitch_rcv 1.542 \; overlap_rcv 1.04 \;
size_rcv 423.453 \; lfo_on_rcv 1 \; lfo_rcv 0 \; lfo_depth_rcv 0.07
\; lfo_speed_rcv 0.144 \;;
#X msg 38 140 \; on_off_rcv 1 \; autoplay_rcv 1 \; freeze_rcv 1 \;
speed_rcv 1 \; scroll_sound_rcv 3 \; locator_rcv 0.413 \; density_rcv
0.231 \; chance_rcv 0.273 \; pitch_rcv 1.145 \; overlap_rcv 1.424 \;
size_rcv 260.586 \; lfo_on_rcv 0 \; lfo_rcv 3 \; lfo_depth_rcv 0.07
\; lfo_speed_rcv 0.144 \;;
#X msg 499 140 \; on_off_rcv 1 \; autoplay_rcv 1 \; freeze_rcv 0 \;
speed_rcv 0.661 \; scroll_sound_rcv 0 \; locator_rcv 0 \; density_rcv
0.495 \; chance_rcv 0.609 \; pitch_rcv 1.337 \; overlap_rcv 0.18 \;
size_rcv 32.573 \; lfo_on_rcv 1 \; lfo_rcv 3 \; lfo_depth_rcv 0.858
\; lfo_speed_rcv 4.705 \;;
#X msg 346 140 \; on_off_rcv 1 \; autoplay_rcv 1 \; freeze_rcv 1 \;
speed_rcv 0.661 \; scroll_sound_rcv 1 \; locator_rcv 0.185 \; density_rcv
0.788 \; chance_rcv 0.221 \; pitch_rcv 0.966 \; overlap_rcv 1.888 \;
size_rcv 781.759 \; lfo_on_rcv 0 \; lfo_rcv 3 \; lfo_depth_rcv 0.07
\; lfo_speed_rcv 0.144 \;;
#X msg 807 140 \; on_off_rcv 1 \; autoplay_rcv 1 \; freeze_rcv 0 \;
speed_rcv 0.228 \; scroll_sound_rcv 4 \; locator_rcv 0 \; density_rcv
0.25 \; chance_rcv 0.882 \; pitch_rcv 0.347 \; overlap_rcv 1.634 \;
size_rcv 244.3 \; lfo_on_rcv 0 \; lfo_rcv 4 \; lfo_depth_rcv 0.929
\; lfo_speed_rcv 0.709 \;;
#X msg 653 140 \; on_off_rcv 1 \; autoplay_rcv 1 \; freeze_rcv 0 \;
speed_rcv 0.141 \; scroll_sound_rcv 5 \; locator_rcv 0 \; density_rcv
0.462 \; chance_rcv 0.273 \; pitch_rcv 1.214 \; overlap_rcv 0.987 \;
size_rcv 162.866 \; lfo_on_rcv 1 \; lfo_rcv 6 \; lfo_depth_rcv 0.543
\; lfo_speed_rcv 0.641 \;;
#X connect 0 0 1 0;
#X connect 1 0 3 0;
#X connect 1 1 2 0;
#X connect 1 2 5 0;
#X connect 1 3 4 0;
#X connect 1 4 7 0;
#X connect 1 5 6 0;
#X restore 1115 287 pd presets;
#X obj 1287 343 vradio 30 1 0 7 lfo lfo_rcv Destination -80 -10 0 16
-232576 -262130 -159808 6;
#X text 1223 347 Locator;
#X text 1222 377 Density;
#X text 1229 408 Chance;
#X text 1235 439 Pitch;
#X text 1223 469 Overlap;
#X text 1244 498 Size;
#X text 1238 528 Speed;
#X obj 1149 378 vsl 30 128 0.1 6.78 1 0 lfo_speed lfo_speed_rcv Speed
-2 -10 0 12 -262130 -159808 -159808 5596 1;
#X obj 1107 377 vsl 30 128 0 1 0 0 lfo_depth lfo_depth_rcv Depth -2
-10 0 12 -232576 -257985 -159808 6896 1;
#X obj 1090 313 cnv 6 250 6 empty empty LFO 32 24 0 22 -204786 -66577
0;
#X obj 1152 525 cnv 15 44 19 empty empty empty 20 12 0 14 -204786 -66577
0;
#N canvas 20 376 1125 504 lfo 0;
#X obj 223 79 r lfo;
#X obj 223 103 select 0 1 2 3 4 5 6;
#X obj 61 130 osc~ 1;
#X obj 61 100 r lfo_speed;
#X obj 62 216 *~;
#X obj 80 188 r lfo_depth;
#X obj 61 279 snapshot~;
#X obj 95 245 metro 10;
#X obj 95 226 tgl 15 0 empty load empty 17 7 0 10 -262144 -1 -1 1 1
;
#X obj 39 161 +~ 1;
#X msg 282 220 symbol pitch_lfo;
#X obj 198 413 send;
#X msg 223 133 symbol locator_lfo;
#X msg 242 161 symbol density_lfo;
#X msg 263 190 symbol chance_lfo;
#X symbolatom 223 378 15 0 0 0 - - -;
#X msg 301 247 symbol overlap_lfo;
#X obj 472 198 s locator_lfo;
#X msg 470 122 0;
#X obj 567 198 s density_lfo;
#X obj 662 198 s chance_lfo;
#X obj 750 198 s pitch_lfo;
#X obj 831 198 s overlap_lfo;
#X msg 319 274 symbol size_lfo;
#X obj 39 185 /~ 4;
#X msg 339 301 symbol speed_lfo;
#X obj 926 198 s size_lfo;
#X obj 1000 198 s speed_lfo;
#X msg 565 122 0;
#X msg 665 122 0;
#X msg 746 122 0;
#X msg 841 122 0;
#X msg 924 122 0;
#X msg 996 122 0;
#X text 614 76 Reset the other lfo's to 0 when switching:;
#X text 221 53 Destination selector:;
#X text 59 72 LFO:;
#X floatatom 142 119 8 0 0 0 - - -;
#X floatatom 161 207 8 0 0 0 - - -;
#X obj 197 332 tgl 15 0 empty lfo_on empty 17 7 0 10 -262144 -1 -1
1 1;
#X obj 158 378 spigot;
#X obj 582 350 select 0;
#X msg 758 371 0;
#X text 140 329 On/Off:;
#X connect 0 0 1 0;
#X connect 1 0 12 0;
#X connect 1 0 18 0;
#X connect 1 1 13 0;
#X connect 1 1 28 0;
#X connect 1 2 14 0;
#X connect 1 2 29 0;
#X connect 1 3 10 0;
#X connect 1 3 30 0;
#X connect 1 4 16 0;
#X connect 1 4 31 0;
#X connect 1 5 23 0;
#X connect 1 5 32 0;
#X connect 1 6 25 0;
#X connect 1 6 33 0;
#X connect 2 0 9 0;
#X connect 3 0 2 0;
#X connect 3 0 37 0;
#X connect 4 0 6 0;
#X connect 5 0 4 1;
#X connect 5 0 38 0;
#X connect 6 0 40 0;
#X connect 7 0 6 0;
#X connect 8 0 7 0;
#X connect 9 0 24 0;
#X connect 10 0 15 0;
#X connect 12 0 15 0;
#X connect 13 0 15 0;
#X connect 14 0 15 0;
#X connect 15 0 11 1;
#X connect 16 0 15 0;
#X connect 18 0 19 0;
#X connect 18 0 20 0;
#X connect 18 0 21 0;
#X connect 18 0 22 0;
#X connect 18 0 27 0;
#X connect 18 0 26 0;
#X connect 23 0 15 0;
#X connect 24 0 4 0;
#X connect 25 0 15 0;
#X connect 28 0 17 0;
#X connect 28 0 20 0;
#X connect 28 0 21 0;
#X connect 28 0 22 0;
#X connect 28 0 27 0;
#X connect 28 0 26 0;
#X connect 29 0 17 0;
#X connect 29 0 19 0;
#X connect 29 0 21 0;
#X connect 29 0 22 0;
#X connect 29 0 26 0;
#X connect 29 0 27 0;
#X connect 30 0 17 0;
#X connect 30 0 19 0;
#X connect 30 0 20 0;
#X connect 30 0 22 0;
#X connect 30 0 26 0;
#X connect 30 0 27 0;
#X connect 31 0 17 0;
#X connect 31 0 19 0;
#X connect 31 0 20 0;
#X connect 31 0 21 0;
#X connect 31 0 26 0;
#X connect 31 0 27 0;
#X connect 32 0 17 0;
#X connect 32 0 19 0;
#X connect 32 0 20 0;
#X connect 32 0 21 0;
#X connect 32 0 22 0;
#X connect 32 0 27 0;
#X connect 33 0 17 0;
#X connect 33 0 19 0;
#X connect 33 0 20 0;
#X connect 33 0 21 0;
#X connect 33 0 22 0;
#X connect 33 0 26 0;
#X connect 39 0 40 1;
#X connect 39 0 41 0;
#X connect 40 0 11 0;
#X connect 41 0 42 0;
#X connect 42 0 17 0;
#X connect 42 0 19 0;
#X connect 42 0 20 0;
#X connect 42 0 21 0;
#X connect 42 0 22 0;
#X connect 42 0 26 0;
#X connect 42 0 27 0;
#X restore 1151 525 pd lfo;
#X obj 1107 513 tgl 30 0 lfo_on lfo_on_rcv On 6 40 0 16 -191407 -228856
-66577 1 1;
