#N canvas 105 27 1202 769 12;
#X obj 1057 1048 cnv 15 100 60 empty empty empty 20 12 0 14 -232576
-66577 0;
#N canvas 291 63 1089 704 machine 0;
#X obj 21 339 cnv 15 400 100 empty empty empty 20 12 0 14 -233017 -66577
0;
#X obj 64 275 cnv 15 400 50 empty empty empty 20 12 0 14 -261234 -66577
0;
#X obj 95 204 cnv 15 400 50 empty empty empty 20 12 0 14 -204786 -66577
0;
#X obj 462 39 cnv 15 600 120 empty empty empty 20 12 0 14 -203904 -66577
0;
#X obj 33 479 cnv 15 300 80 empty empty empty 20 12 0 14 -204800 -66577
0;
#N canvas 0 25 1440 769 sampleSlicer 0;
#X obj 370 33 bng 15 250 50 0 empty empty empty 17 7 0 10 -262144 -1
-1;
#X obj 370 85 soundfiler;
#X msg 370 58 read -resize samplesISH/sample2.wav sample2;
#X obj 29 33 bng 15 250 50 0 empty empty empty 17 7 0 10 -262144 -1
-1;
#X obj 29 84 soundfiler;
#X obj 754 31 bng 15 250 50 0 empty empty empty 17 7 0 10 -262144 -1
-1;
#X obj 754 85 soundfiler;
#X msg 754 56 read -resize samplesISH/sample3.wav sample3;
#X obj 1097 28 bng 15 250 50 0 empty empty empty 17 7 0 10 -262144
-1 -1;
#X obj 1097 87 soundfiler;
#X msg 1097 55 read -resize samplesISH/sample4.wav sample4;
#N canvas 336 38 832 638 superslicer1 0;
#X floatatom 391 425 10 0 0 0 - - -;
#X floatatom 278 179 5 0 0 0 - - -;
#X obj 391 448 t b f;
#X obj 389 500 expr $f2 / $f1;
#X obj 59 488 vline~;
#X msg 59 463 \$1 \, \$2 \$3;
#X obj 61 284 random;
#X obj 61 223 tgl 15 0 empty empty empty 17 7 0 10 -262144 -1 -1 0
1;
#X obj 61 257 metro;
#X obj 59 441 pack f f f;
#X obj 59 401 *;
#X obj 93 339 + 1;
#X obj 61 308 t f f;
#X obj 92 402 *;
#X obj 122 402 / 44.1;
#X obj 278 118 % 8;
#X obj 278 90 f;
#X obj 308 90 + 1;
#X obj 278 61 t b;
#X obj 278 146 + 1;
#X text 414 42 change subdivisions;
#X obj 59 545 outlet~;
#X text 417 23 Send slicerChangebang to';
#X text 468 424 Size of array needs to go in here;
#X obj 276 29 r slicer1Changebang;
#X obj 277 210 s subdivisionSlicer1;
#X obj 391 400 r sizesample1;
#X obj 389 474 r subdivisionSlicer1;
#X obj 389 531 s slicerPosition1;
#X obj 74 364 r slicerPosition1;
#X obj 81 177 r startSlicer1;
#X text 422 72;
#X text 306 118 Modulus to create divisions between 1 and 8;
#X text 495 500 Returns size of array / number of divisions;
#X text 517 532 Sends value;
#X text 106 256 Segment size in ms;
#X text 114 282 Chooses a random segment;
#X text 429 209 Sends the value;
#X text 136 441 Gets start and duration of segment;
#X connect 0 0 2 0;
#X connect 1 0 6 1;
#X connect 1 0 25 0;
#X connect 2 1 3 1;
#X connect 3 0 28 0;
#X connect 4 0 21 0;
#X connect 5 0 4 0;
#X connect 6 0 12 0;
#X connect 7 0 8 0;
#X connect 8 0 6 0;
#X connect 9 0 5 0;
#X connect 10 0 9 0;
#X connect 11 0 13 0;
#X connect 12 0 10 0;
#X connect 12 1 11 0;
#X connect 13 0 9 1;
#X connect 14 0 9 2;
#X connect 14 0 8 1;
#X connect 15 0 19 0;
#X connect 16 0 15 0;
#X connect 16 0 17 0;
#X connect 17 0 16 1;
#X connect 18 0 16 0;
#X connect 19 0 1 0;
#X connect 24 0 18 0;
#X connect 26 0 0 0;
#X connect 27 0 3 0;
#X connect 29 0 14 0;
#X connect 29 0 10 1;
#X connect 29 0 13 1;
#X connect 30 0 7 0;
#X restore 46 351 pd superslicer1;
#N canvas 178 71 1000 666 superslicer2 0;
#X floatatom 270 389 10 0 0 0 - - -;
#X floatatom 278 179 5 0 0 0 - - -;
#X obj 270 412 t b f;
#X obj 268 464 expr $f2 / $f1;
#X obj 59 488 vline~;
#X msg 59 463 \$1 \, \$2 \$3;
#X obj 61 284 random;
#X obj 61 237 tgl 15 0 empty empty empty 17 7 0 10 -262144 -1 -1 0
1;
#X obj 61 257 metro;
#X obj 59 441 pack f f f;
#X obj 59 401 *;
#X obj 93 339 + 1;
#X obj 61 308 t f f;
#X obj 92 402 *;
#X obj 126 402 / 44.1;
#X obj 278 118 % 8;
#X obj 278 90 f;
#X obj 308 90 + 1;
#X obj 278 61 t b;
#X obj 278 146 + 1;
#X text 417 52 change subdivisions;
#X text 422 72 Randomly;
#X obj 59 545 outlet~;
#X text 420 33 Send slicerChangebang to';
#X text 276 256 change subdivisions;
#X text 279 237 Send slicerChangebang to';
#X text 347 388 Size of array needs to go in here;
#X obj 270 364 r sizesample2;
#X obj 268 438 r subdivisionSlicer2;
#X obj 268 495 s slicerPosition2;
#X obj 74 364 r slicerPosition2;
#X obj 278 36 r slicer2Changebang;
#X obj 277 210 s subdivisionSlicer2;
#X obj 77 132 r startSlicer2;
#X connect 0 0 2 0;
#X connect 1 0 32 0;
#X connect 1 0 6 1;
#X connect 2 1 3 1;
#X connect 3 0 29 0;
#X connect 4 0 22 0;
#X connect 5 0 4 0;
#X connect 6 0 12 0;
#X connect 7 0 8 0;
#X connect 8 0 6 0;
#X connect 9 0 5 0;
#X connect 10 0 9 0;
#X connect 11 0 13 0;
#X connect 12 0 10 0;
#X connect 12 1 11 0;
#X connect 13 0 9 1;
#X connect 14 0 9 2;
#X connect 14 0 8 1;
#X connect 15 0 19 0;
#X connect 16 0 15 0;
#X connect 16 0 17 0;
#X connect 17 0 16 1;
#X connect 18 0 16 0;
#X connect 19 0 1 0;
#X connect 27 0 0 0;
#X connect 28 0 3 0;
#X connect 30 0 14 0;
#X connect 30 0 10 1;
#X connect 30 0 13 1;
#X connect 31 0 18 0;
#X connect 33 0 7 0;
#X restore 374 343 pd superslicer2;
#N canvas 228 29 855 726 superslicer3 0;
#X floatatom 270 389 10 0 0 0 - - -;
#X floatatom 278 179 5 0 0 0 - - -;
#X obj 270 412 t b f;
#X obj 268 464 expr $f2 / $f1;
#X obj 59 488 vline~;
#X msg 59 463 \$1 \, \$2 \$3;
#X obj 61 284 random;
#X obj 61 237 tgl 15 0 empty empty empty 17 7 0 10 -262144 -1 -1 0
1;
#X obj 61 257 metro;
#X obj 59 441 pack f f f;
#X obj 59 401 *;
#X obj 93 339 + 1;
#X obj 61 308 t f f;
#X obj 92 402 *;
#X obj 126 402 / 44.1;
#X obj 278 118 % 8;
#X obj 278 90 f;
#X obj 308 90 + 1;
#X obj 278 61 t b;
#X obj 278 146 + 1;
#X text 417 52 change subdivisions;
#X text 422 72 Randomly;
#X obj 59 545 outlet~;
#X text 420 33 Send slicerChangebang to';
#X text 276 256 change subdivisions;
#X text 279 237 Send slicerChangebang to';
#X text 347 388 Size of array needs to go in here;
#X obj 74 364 r slicerPosition3;
#X obj 268 438 r subdivisionSlicer3;
#X obj 268 495 s slicerPosition3;
#X obj 270 364 r sizesample3;
#X obj 277 210 s subdivisionSlicer3;
#X obj 278 36 r slicer3Changebang;
#X obj 81 177 r startSlicer3;
#X connect 0 0 2 0;
#X connect 1 0 6 1;
#X connect 1 0 31 0;
#X connect 2 1 3 1;
#X connect 3 0 29 0;
#X connect 4 0 22 0;
#X connect 5 0 4 0;
#X connect 6 0 12 0;
#X connect 7 0 8 0;
#X connect 8 0 6 0;
#X connect 9 0 5 0;
#X connect 10 0 9 0;
#X connect 11 0 13 0;
#X connect 12 0 10 0;
#X connect 12 1 11 0;
#X connect 13 0 9 1;
#X connect 14 0 9 2;
#X connect 14 0 8 1;
#X connect 15 0 19 0;
#X connect 16 0 15 0;
#X connect 16 0 17 0;
#X connect 17 0 16 1;
#X connect 18 0 16 0;
#X connect 19 0 1 0;
#X connect 27 0 14 0;
#X connect 27 0 10 1;
#X connect 27 0 13 1;
#X connect 28 0 3 0;
#X connect 30 0 0 0;
#X connect 32 0 18 0;
#X connect 33 0 7 0;
#X restore 746 331 pd superslicer3;
#N canvas 157 33 1024 691 superslicer4 0;
#X floatatom 270 389 10 0 0 0 - - -;
#X floatatom 278 179 5 0 0 0 - - -;
#X obj 270 412 t b f;
#X obj 268 464 expr $f2 / $f1;
#X obj 59 488 vline~;
#X msg 59 463 \$1 \, \$2 \$3;
#X obj 61 284 random;
#X obj 61 237 tgl 15 0 empty empty empty 17 7 0 10 -262144 -1 -1 0
1;
#X obj 61 257 metro;
#X obj 59 441 pack f f f;
#X obj 59 401 *;
#X obj 93 339 + 1;
#X obj 61 308 t f f;
#X obj 92 402 *;
#X obj 126 402 / 44.1;
#X obj 278 118 % 8;
#X obj 278 90 f;
#X obj 308 90 + 1;
#X obj 278 61 t b;
#X obj 278 146 + 1;
#X text 417 52 change subdivisions;
#X text 422 72 Randomly;
#X obj 59 545 outlet~;
#X text 420 33 Send slicerChangebang to';
#X text 276 256 change subdivisions;
#X text 279 237 Send slicerChangebang to';
#X text 347 388 Size of array needs to go in here;
#X obj 278 36 r slicer4Changebang;
#X obj 277 210 s subdivisionSlicer4;
#X obj 270 364 r sizesample4;
#X obj 268 438 r subdivisionSlicer4;
#X obj 268 495 s slicerPosition4;
#X obj 74 364 r slicerPosition4;
#X obj 47 177 r startSlicer4;
#X connect 0 0 2 0;
#X connect 1 0 6 1;
#X connect 1 0 28 0;
#X connect 2 1 3 1;
#X connect 3 0 31 0;
#X connect 4 0 22 0;
#X connect 5 0 4 0;
#X connect 6 0 12 0;
#X connect 7 0 8 0;
#X connect 8 0 6 0;
#X connect 9 0 5 0;
#X connect 10 0 9 0;
#X connect 11 0 13 0;
#X connect 12 0 10 0;
#X connect 12 1 11 0;
#X connect 13 0 9 1;
#X connect 14 0 9 2;
#X connect 14 0 8 1;
#X connect 15 0 19 0;
#X connect 16 0 15 0;
#X connect 16 0 17 0;
#X connect 17 0 16 1;
#X connect 18 0 16 0;
#X connect 19 0 1 0;
#X connect 27 0 18 0;
#X connect 29 0 0 0;
#X connect 30 0 3 0;
#X connect 32 0 14 0;
#X connect 32 0 10 1;
#X connect 32 0 13 1;
#X connect 33 0 7 0;
#X restore 1075 340 pd superslicer4;
#X obj 29 109 s sizesample1;
#X obj 370 114 s sizesample2;
#X obj 1097 112 s sizesample4;
#X obj 754 114 s sizesample3;
#X msg 29 60 read -resize samplesISH/sample1.wav sample1;
#X obj 523 143 bng 15 250 50 0 empty empty empty 17 7 0 10 -262144
-1 -1;
#X obj 522 189 bng 15 250 50 0 empty empty empty 17 7 0 10 -262144
-1 -1;
#X obj 524 164 s slicer2Changebang;
#X obj 522 211 s slicer2Startbang;
#X obj 374 375 tabread4~ sample2;
#X text 544 188 Start stop Button;
#X text 540 141 Change divisions button;
#X obj 46 379 tabread4~ sample1;
#X obj 746 361 tabread4~ sample3;
#X obj 1075 368 tabread4~ sample4;
#X obj 892 141 bng 15 250 50 0 empty empty empty 17 7 0 10 -262144
-1 -1;
#X obj 891 187 bng 15 250 50 0 empty empty empty 17 7 0 10 -262144
-1 -1;
#X text 913 186 Start stop Button;
#X text 909 139 Change divisions button;
#X obj 893 162 s slicer3Changebang;
#X obj 891 209 s slicer3Startbang;
#X text 1246 188 Start stop Button;
#X text 1242 141 Change divisions button;
#X obj 1226 164 s slicer4Changebang;
#X obj 1224 211 s slicer4Startbang;
#X obj 1225 143 bng 15 250 50 0 empty empty empty 17 7 0 10 -262144
-1 -1;
#X obj 1224 189 bng 15 250 50 0 empty empty empty 17 7 0 10 -262144
-1 -1;
#X obj 173 14 r jaLoadBang;
#X obj 524 14 r jaLoadBang;
#X obj 894 11 r jaLoadBang;
#X obj 1226 9 r jaLoadBang;
#X obj 174 153 bng 15 250 50 0 empty empty empty 17 7 0 10 -262144
-1 -1;
#X obj 173 199 bng 15 250 50 0 empty empty empty 17 7 0 10 -262144
-1 -1;
#X text 195 198 Start stop Button;
#X text 191 151 Change divisions button;
#X obj 174 174 s slicer1Changebang;
#X obj 173 221 s slicer1Startbang;
#X obj 47 446 *~;
#X obj 374 446 *~;
#X obj 747 446 *~;
#X obj 1075 446 *~;
#X obj 78 428 r sampleVolume1;
#X obj 1103 428 r sampleVolume4;
#X obj 403 428 r sampleVolume2;
#X obj 765 424 r sampleVolume3;
#X obj 1449 465 *~;
#X obj 1450 497 outlet~;
#X obj 46 406 outlet~;
#X obj 375 405 outlet~;
#X obj 746 402 outlet~;
#X obj 1467 309 vsl 15 140 0 1 0 0 empty jaScrubberVolumes empty 0
-9 0 10 -262144 -1 -1 6950 1;
#X obj 1075 406 outlet~;
#X obj 1449 597 env~;
#X obj 1451 628 - 100;
#X obj 1450 691 vu 15 120 empty empty -1 -8 0 10 -66577 -1 1 0;
#X text 1497 597 For testing;
#X text 130 85 Reads the audio file and gets samplesize;
#X text 315 173 Sends bang to superslicer;
#X text 507 587 Main patch to read \, process and apply subdivision
on the attached audio files in the sampler.;
#X text 41 316 Subpatch to slice out segments of the audio according
to the number of divisions;
#X connect 0 0 2 0;
#X connect 1 0 16 0;
#X connect 2 0 1 0;
#X connect 3 0 19 0;
#X connect 4 0 15 0;
#X connect 5 0 7 0;
#X connect 6 0 18 0;
#X connect 7 0 6 0;
#X connect 8 0 10 0;
#X connect 9 0 17 0;
#X connect 10 0 9 0;
#X connect 11 0 27 0;
#X connect 12 0 24 0;
#X connect 13 0 28 0;
#X connect 14 0 29 0;
#X connect 19 0 4 0;
#X connect 20 0 22 0;
#X connect 21 0 23 0;
#X connect 24 0 53 0;
#X connect 24 0 63 0;
#X connect 27 0 52 0;
#X connect 27 0 62 0;
#X connect 28 0 54 0;
#X connect 28 0 64 0;
#X connect 29 0 55 0;
#X connect 29 0 66 0;
#X connect 30 0 34 0;
#X connect 31 0 35 0;
#X connect 40 0 38 0;
#X connect 41 0 39 0;
#X connect 42 0 3 0;
#X connect 42 0 50 0;
#X connect 43 0 0 0;
#X connect 43 0 22 0;
#X connect 44 0 5 0;
#X connect 44 0 34 0;
#X connect 45 0 8 0;
#X connect 45 0 38 0;
#X connect 46 0 50 0;
#X connect 47 0 51 0;
#X connect 52 0 60 0;
#X connect 53 0 60 0;
#X connect 54 0 60 0;
#X connect 55 0 60 0;
#X connect 56 0 52 1;
#X connect 57 0 55 1;
#X connect 58 0 53 1;
#X connect 59 0 54 1;
#X connect 60 0 61 0;
#X connect 60 0 67 0;
#X connect 65 0 60 1;
#X connect 67 0 68 0;
#X connect 68 0 69 0;
#X restore 315 229 pd sampleSlicer;
#X f 24;
#N canvas 248 117 762 625 jaRecording2 0;
#X obj 53 306 adc~;
#X obj 53 332 *~;
#X floatatom 70 281 5 0 0 0 - - -;
#X msg 234 282 start;
#X msg 234 243 stop;
#X obj 234 135 bng 15 250 50 0 empty empty empty 17 7 0 10 -262144
-1 -1;
#X obj 385 227 bng 15 250 50 0 empty empty empty 17 7 0 10 -262144
-1 -1;
#X obj 234 108 sel 1, f 22;
#X floatatom 556 119 5 0 0 0 - - -;
#X obj 556 143 expr 44100 * $f1;
#X floatatom 556 167 15 0 0 0 - - -;
#X text 66 238 amplifies input;
#X obj 234 351 tabwrite~ looper2;
#X msg 556 96 4;
#X obj 70 259 r jaInputAmp;
#X obj 556 46 r jaLoadBang;
#X obj 556 75 bng 15 250 50 0 empty empty empty 17 7 0 10 -262144 -1
-1;
#X obj 234 64 tgl 15 0 empty empty empty 17 7 0 10 -262144 -1 -1 0
1;
#X obj 555 193 s jaScrubberLooper;
#X obj 23 79 metro 1200;
#X obj 23 104 s jaImRecording;
#X msg 554 222 \; looper2 resize \$1 \;;
#X obj 234 470 r~ overdubLooper2;
#X obj 234 491 *~ \$1;
#X obj 305 396 r overdub2;
#X obj 266 448 spigot;
#X msg 265 415 1;
#X obj 385 538 ==;
#X floatatom 403 513 5 0 0 0 - gate_0 -;
#X text 386 483 Start looping after recording.;
#X obj 234 35 r jaStartRecording2;
#X obj 385 565 s start2;
#X text 186 201 Sends start and stop signals for recording;
#X text 15 56 Recording indicator light;
#X text 233 13 Gets start-bang from GUI;
#X text 556 25 Resizes the loopers length;
#X text 302 418 Enables overdubs to be done;
#X connect 0 0 1 0;
#X connect 1 0 12 0;
#X connect 2 0 1 1;
#X connect 3 0 12 0;
#X connect 4 0 12 0;
#X connect 5 0 3 0;
#X connect 6 0 4 0;
#X connect 6 0 27 0;
#X connect 7 0 5 0;
#X connect 7 1 6 0;
#X connect 8 0 9 0;
#X connect 9 0 10 0;
#X connect 10 0 21 0;
#X connect 10 0 18 0;
#X connect 13 0 8 0;
#X connect 14 0 2 0;
#X connect 15 0 16 0;
#X connect 16 0 13 0;
#X connect 17 0 7 0;
#X connect 17 0 19 0;
#X connect 19 0 20 0;
#X connect 22 0 23 0;
#X connect 23 0 12 0;
#X connect 24 0 25 1;
#X connect 24 0 26 0;
#X connect 25 0 23 1;
#X connect 26 0 25 0;
#X connect 27 0 31 0;
#X connect 28 0 27 1;
#X connect 30 0 17 0;
#X restore 105 537 pd jaRecording2;
#N canvas 129 281 814 483 jaScrubberLooper2 0;
#X obj 476 379 *~;
#X floatatom 494 317 5 0 0 0 - - -;
#X obj 476 156 vline~;
#X floatatom 477 180 15 0 0 0 - - -;
#X msg 476 131 \$1 100;
#X obj 198 334 *~;
#X obj 198 397 outlet~;
#X obj 20 179 sel 1;
#X obj 198 277 outlet~;
#X obj 198 112 spigot;
#X text 104 100 Loop ON/OFF;
#X obj 20 150 r loopLooper2;
#X obj 15 217 s~ overdubLooper2;
#X obj 198 198 tabplay~ looper2, f 20;
#X obj 236 44 r loopLooper2;
#X obj 476 105 r jaTimeLineScrubber;
#X obj 476 256 tabread4~ looper2, f 18;
#X obj 494 285 r jaScrubberVolume2;
#X text 475 76 Scrubs the playback of audio from the looper.;
#X connect 0 0 6 0;
#X connect 1 0 0 1;
#X connect 1 0 5 1;
#X connect 2 0 16 0;
#X connect 3 0 13 0;
#X connect 4 0 2 0;
#X connect 5 0 6 0;
#X connect 7 0 13 0;
#X connect 9 0 13 0;
#X connect 11 0 7 0;
#X connect 13 0 5 0;
#X connect 13 0 8 0;
#X connect 13 0 12 0;
#X connect 13 1 9 0;
#X connect 14 0 9 1;
#X connect 15 0 3 0;
#X connect 15 0 4 0;
#X connect 16 0 0 0;
#X connect 16 0 8 0;
#X connect 17 0 1 0;
#X restore 272 372 pd jaScrubberLooper2;
#N canvas 144 63 1073 456 fxPatches 0;
#N canvas 247 83 1025 701 delayPatch 0;
#X obj 535 475 inlet;
#X obj 471 37 loadbang;
#X obj 471 93 metro 2000;
#X floatatom 472 379 5 0 0 0 - - -;
#X obj 471 67 tgl 15 0 empty empty empty 17 7 0 10 -262144 -1 -1 1
1;
#X obj 500 569 *~ 0;
#X obj 500 660 outlet~;
#X msg 535 507 \$1;
#X obj 372 598 *~ 0;
#X obj 636 597 *~ 0;
#X obj 851 316 delread~ fxDelay 1000;
#X floatatom 65 296 5 0 0 0 - - -;
#X obj 372 659 throw~ fxL;
#X obj 636 657 throw~ fxR;
#X floatatom 851 276 5 0 0 0 - - -;
#X obj 471 128 random 500;
#X obj 472 414 delread~ fxDelay 500;
#X obj 65 335 delread~ fxDelay 250;
#X obj 66 270 / 2;
#X obj 851 252 * 2;
#X floatatom 372 291 5 0 0 0 - - -;
#X obj 372 317 delread~ fxDelay 250;
#X obj 373 265 * 2;
#X obj 648 314 delread~ fxDelay 1000;
#X floatatom 648 284 5 0 0 0 - - -;
#X obj 648 260 / 2;
#X text 533 450 FX vol:;
#X text 467 259 Ping-Pong delay;
#X text 506 640 Mid:;
#X text 378 638 Left:;
#X text 642 637 Right:;
#X text 147 56 Stereo ping-pong delay;
#X text 847 217 Additional ping:;
#X text 24 228 Additional pong:;
#X obj 65 373 *~ 0.3;
#X obj 648 346 *~ 0.3;
#X obj 372 348 *~ 0.15;
#X obj 851 354 *~ 0.15;
#X obj 471 161 + 100;
#X obj 501 600 *~ 0.275;
#X obj 303 159 random 800;
#X obj 303 183 + 200;
#X connect 0 0 7 0;
#X connect 1 0 4 0;
#X connect 2 0 15 0;
#X connect 2 0 40 0;
#X connect 3 0 16 0;
#X connect 4 0 2 0;
#X connect 5 0 39 0;
#X connect 7 0 5 1;
#X connect 7 0 8 1;
#X connect 7 0 9 1;
#X connect 8 0 12 0;
#X connect 9 0 13 0;
#X connect 10 0 37 0;
#X connect 11 0 17 0;
#X connect 14 0 10 0;
#X connect 15 0 38 0;
#X connect 16 0 5 0;
#X connect 17 0 34 0;
#X connect 18 0 11 0;
#X connect 19 0 14 0;
#X connect 20 0 21 0;
#X connect 21 0 36 0;
#X connect 22 0 20 0;
#X connect 23 0 35 0;
#X connect 24 0 23 0;
#X connect 25 0 24 0;
#X connect 34 0 8 0;
#X connect 35 0 9 0;
#X connect 36 0 8 0;
#X connect 37 0 9 0;
#X connect 38 0 3 0;
#X connect 38 0 22 0;
#X connect 38 0 25 0;
#X connect 39 0 6 0;
#X connect 40 0 41 0;
#X connect 41 0 18 0;
#X connect 41 0 19 0;
#X restore 142 209 pd delayPatch;
#N canvas 425 274 345 487 reverb 0;
#X obj 76 332 *~ 0;
#X obj 228 210 inlet;
#X msg 227 247 \$1;
#X obj 104 151 rev3~ 100 90;
#X obj 94 110 delread~ fxReverb 0;
#X obj 199 331 *~ 0;
#X obj 76 356 throw~ fxL;
#X obj 199 355 throw~ fxR;
#X text 109 77 Stereo Reverb:;
#X connect 0 0 6 0;
#X connect 1 0 2 0;
#X connect 2 0 0 1;
#X connect 2 0 5 1;
#X connect 3 0 0 0;
#X connect 3 1 5 0;
#X connect 4 0 3 0;
#X connect 4 0 3 1;
#X connect 5 0 7 0;
#X restore 279 210 pd reverb;
#N canvas 793 127 425 539 distortion 0;
#X obj 286 58 loadbang;
#X obj 286 114 metro 2000;
#X floatatom 287 203 5 0 0 0 - - -;
#X obj 286 88 tgl 15 0 empty empty empty 17 7 0 10 -262144 -1 -1 1
1;
#X obj 123 433 outlet~;
#X obj 179 321 inlet;
#X msg 178 358 \$1;
#X obj 90 188 delread~ fxDistortion 0;
#X obj 122 394 *~ 0.5;
#X obj 286 172 / 100;
#X obj 286 142 random 400;
#X obj 121 248 *~ 4;
#X obj 121 272 clip~ -0.05 0.05;
#X text 88 164 Distortion unit:;
#X connect 0 0 3 0;
#X connect 1 0 10 0;
#X connect 2 0 11 1;
#X connect 3 0 1 0;
#X connect 5 0 6 0;
#X connect 6 0 8 1;
#X connect 7 0 11 0;
#X connect 8 0 4 0;
#X connect 9 0 2 0;
#X connect 10 0 9 0;
#X connect 11 0 12 0;
#X connect 12 0 8 0;
#X restore 405 210 pd distortion;
#N canvas 612 194 458 500 ringMod 0;
#X obj 266 311 *~ 0;
#X obj 267 350 outlet~;
#X obj 233 221 osc~;
#X floatatom 233 192 5 0 0 0 - - -;
#X obj 155 248 *~;
#X obj 234 69 loadbang;
#X obj 234 125 metro 2000;
#X obj 235 100 tgl 15 0 empty empty empty 17 7 0 10 -262144 -1 -1 1
1;
#X obj 234 155 random 100;
#X obj 300 225 inlet;
#X msg 299 262 \$1;
#X obj 79 219 delread~ fxRingMod 0;
#X text 93 182 Ringmod unit:;
#X connect 0 0 1 0;
#X connect 2 0 4 1;
#X connect 3 0 2 0;
#X connect 4 0 0 0;
#X connect 5 0 7 0;
#X connect 6 0 8 0;
#X connect 7 0 6 0;
#X connect 8 0 3 0;
#X connect 9 0 10 0;
#X connect 10 0 0 1;
#X connect 11 0 4 0;
#X restore 559 209 pd ringMod;
#X obj 142 172 inlet delayGain;
#X obj 279 172 inlet reverbGain;
#X obj 851 172 inlet chorusGain;
#X obj 559 172 inlet ringModGain;
#X obj 405 172 inlet distortionGain;
#X obj 715 172 inlet ampModGain;
#N canvas 160 25 476 483 ampMod 0;
#X obj 348 369 *~ 0;
#X obj 349 408 outlet~;
#X obj 360 208 osc~;
#X floatatom 360 172 5 0 0 0 - - -;
#X obj 296 318 *~;
#X obj 359 51 loadbang;
#X obj 359 107 metro 2000;
#X obj 359 81 tgl 15 0 empty empty empty 17 7 0 10 -262144 -1 -1 1
1;
#X obj 358 142 random 100;
#X obj 355 239 +~ 1;
#X obj 354 264 /~ 2;
#X text 204 251 unipolar conversion;
#X obj 397 301 inlet;
#X msg 396 338 \$1;
#X obj 40 260 delread~ fxAmpMod 0;
#X text 108 143 (Heavy tremolo);
#X text 99 123 AM - Amp Modulation;
#X connect 0 0 1 0;
#X connect 2 0 9 0;
#X connect 3 0 2 0;
#X connect 4 0 0 0;
#X connect 5 0 7 0;
#X connect 6 0 8 0;
#X connect 7 0 6 0;
#X connect 8 0 3 0;
#X connect 9 0 10 0;
#X connect 10 0 4 1;
#X connect 12 0 13 0;
#X connect 13 0 0 1;
#X connect 14 0 4 0;
#X restore 715 209 pd ampMod;
#X obj 507 355 outlet~;
#N canvas 71 25 1251 745 chorus2 0;
#X obj 21 103 delwrite~ \$0-delBuffer 100;
#X obj 108 505 delread4~ \$0-delBuffer;
#X msg 563 606 \$1;
#X obj 563 576 inlet;
#X obj 21 39 delread~ fxChorus 0;
#X obj 213 314 osc~;
#X floatatom 213 280 5 0 0 0 - - -;
#X obj 213 345 expr~ ($v1 + 1) / 2;
#X obj 213 400 *~;
#X floatatom 362 345 5 0 0 0 - - -;
#X obj 190 451 +~ 5;
#X obj 271 505 delread4~ \$0-delBuffer;
#X obj 656 504 delread4~ \$0-delBuffer;
#X obj 482 505 delread4~ \$0-delBuffer;
#X obj 542 454 +~ 6;
#X obj 482 675 *~ 0;
#X obj 233 451 +~ 3;
#X obj 589 454 +~ 2;
#X obj 566 308 osc~;
#X floatatom 566 274 5 0 0 0 - - -;
#X obj 566 339 expr~ ($v1 + 1) / 2;
#X obj 564 403 *~;
#X floatatom 715 339 5 0 0 0 - - -;
#X obj 637 17 loadbang;
#X obj 637 73 metro 2000;
#X obj 637 47 tgl 15 0 empty empty empty 17 7 0 10 -262144 -1 -1 1
1;
#X obj 213 183 random 400;
#X obj 566 185 random 600;
#X obj 213 207 / 100;
#X obj 566 209 / 100;
#X obj 364 183 random 150;
#X obj 716 190 random 100;
#X text 666 44 Randomize every 2 seconds;
#X text 26 80 (re)Write to a 100 ms buffer;
#X text 182 260 Rate (0-4Hz);
#X text 533 257 Rate (0-6Hz);
#X text 367 321 Depth (0-15);
#X obj 364 213 / 10;
#X obj 716 214 / 10;
#X text 719 318 Depth (0-10);
#X text 122 451 Offsets:;
#X text 562 556 FX Volume:;
#X text 476 455 Offsets:;
#X obj 1025 503 delread4~ \$0-delBuffer;
#X obj 851 504 delread4~ \$0-delBuffer;
#X obj 935 307 osc~;
#X floatatom 935 273 5 0 0 0 - - -;
#X obj 935 338 expr~ ($v1 + 1) / 2;
#X obj 933 402 *~;
#X floatatom 1084 338 5 0 0 0 - - -;
#X obj 935 208 / 100;
#X obj 1085 213 / 10;
#X text 845 454 Offsets:;
#X obj 911 453 +~ 1;
#X obj 958 453 +~ 7;
#X text 902 256 Rate (0-3Hz);
#X obj 935 184 random 300;
#X obj 108 529 *~ 0.125;
#X obj 271 529 *~ 0.125;
#X obj 482 530 *~ 0.125;
#X obj 656 528 *~ 0.125;
#X obj 851 529 *~ 0.125;
#X obj 1025 527 *~ 0.125;
#X text 1088 317 Depth (0-19);
#X obj 1085 189 random 190;
#X obj 656 677 *~ 0;
#X obj 482 699 throw~ fxL;
#X obj 656 701 throw~ fxR;
#X text 314 41 "dual/stereo tri-chorus";
#X connect 1 0 57 0;
#X connect 2 0 15 1;
#X connect 2 0 65 1;
#X connect 3 0 2 0;
#X connect 4 0 0 0;
#X connect 5 0 7 0;
#X connect 6 0 5 0;
#X connect 7 0 8 0;
#X connect 8 0 16 0;
#X connect 8 0 10 0;
#X connect 9 0 8 1;
#X connect 10 0 1 0;
#X connect 11 0 58 0;
#X connect 12 0 60 0;
#X connect 13 0 59 0;
#X connect 14 0 13 0;
#X connect 15 0 66 0;
#X connect 16 0 11 0;
#X connect 17 0 12 0;
#X connect 18 0 20 0;
#X connect 19 0 18 0;
#X connect 20 0 21 0;
#X connect 21 0 14 0;
#X connect 21 0 17 0;
#X connect 22 0 21 1;
#X connect 23 0 25 0;
#X connect 24 0 26 0;
#X connect 24 0 27 0;
#X connect 24 0 30 0;
#X connect 24 0 31 0;
#X connect 24 0 56 0;
#X connect 24 0 64 0;
#X connect 25 0 24 0;
#X connect 26 0 28 0;
#X connect 27 0 29 0;
#X connect 28 0 6 0;
#X connect 29 0 19 0;
#X connect 30 0 37 0;
#X connect 31 0 38 0;
#X connect 37 0 9 0;
#X connect 38 0 22 0;
#X connect 43 0 62 0;
#X connect 44 0 61 0;
#X connect 45 0 47 0;
#X connect 46 0 45 0;
#X connect 47 0 48 0;
#X connect 48 0 53 0;
#X connect 48 0 54 0;
#X connect 49 0 48 1;
#X connect 50 0 46 0;
#X connect 51 0 49 0;
#X connect 53 0 44 0;
#X connect 54 0 43 0;
#X connect 56 0 50 0;
#X connect 57 0 15 0;
#X connect 58 0 65 0;
#X connect 59 0 15 0;
#X connect 60 0 65 0;
#X connect 61 0 15 0;
#X connect 62 0 65 0;
#X connect 64 0 51 0;
#X connect 65 0 67 0;
#X restore 851 208 pd chorus2;
#X text 360 83 Every FX except the reverb are generative \,;
#X text 357 104 and will randomize it's parameters every 2 seconds.
;
#X text 444 45 --- FX section ---;
#X connect 0 0 11 0;
#X connect 2 0 11 0;
#X connect 3 0 11 0;
#X connect 4 0 0 0;
#X connect 5 0 1 0;
#X connect 6 0 12 0;
#X connect 7 0 3 0;
#X connect 8 0 2 0;
#X connect 9 0 10 0;
#X connect 10 0 11 0;
#X restore 485 130 pd fxPatches;
#X f 68;
#X text 495 73 delay;
#X text 597 71 reverb;
#X text 677 73 distortion;
#X text 784 73 ring mod;
#X text 881 72 amp mod;
#X text 980 73 chorus;
#N canvas 0 68 1440 763 fxRouting 0;
#X obj 15 33 inlet~;
#X obj 152 116 r fx_1_1;
#X obj 237 117 r fx_1_2;
#X obj 318 119 r fx_1_3;
#X obj 402 120 r fx_1_4;
#X obj 485 122 r fx_1_5;
#X obj 565 124 r fx_1_6;
#X obj 47 188 *~;
#X obj 134 188 *~;
#X obj 210 188 *~;
#X obj 288 188 *~;
#X obj 377 188 *~;
#X obj 473 189 *~;
#X obj 57 224 s~ fx1_1M;
#X obj 141 226 s~ fx1_2M;
#X obj 218 229 s~ fx1_3M;
#X obj 299 233 s~ fx1_4M;
#X obj 379 233 s~ fx1_5M;
#X obj 473 232 s~ fx1_6M;
#X obj 188 327 inlet~;
#X obj 220 482 *~;
#X obj 307 482 *~;
#X obj 383 482 *~;
#X obj 461 482 *~;
#X obj 550 482 *~;
#X obj 646 483 *~;
#X obj 325 410 r fx_2_1;
#X obj 410 411 r fx_2_2;
#X obj 491 413 r fx_2_3;
#X obj 575 414 r fx_2_4;
#X obj 658 416 r fx_2_5;
#X obj 738 418 r fx_2_6;
#X obj 237 582 s~ fx2_1M;
#X obj 321 584 s~ fx2_2M;
#X obj 398 588 s~ fx2_3M;
#X obj 479 589 s~ fx2_4M;
#X obj 559 591 s~ fx2_5M;
#X obj 653 590 s~ fx2_6M;
#X obj 633 29 inlet~;
#X obj 665 184 *~;
#X obj 752 184 *~;
#X obj 828 184 *~;
#X obj 906 184 *~;
#X obj 995 184 *~;
#X obj 1091 185 *~;
#X obj 770 112 r fx_3_1;
#X obj 855 113 r fx_3_2;
#X obj 937 115 r fx_3_3;
#X obj 1020 116 r fx_3_4;
#X obj 1103 118 r fx_3_5;
#X obj 1183 120 r fx_3_6;
#X obj 682 284 s~ fx3_1M;
#X obj 766 286 s~ fx3_2M;
#X obj 843 291 s~ fx3_3M;
#X obj 924 291 s~ fx3_4M;
#X obj 1003 293 s~ fx3_5M;
#X obj 1097 292 s~ fx3_6M;
#X obj 857 341 inlet~;
#X obj 889 496 *~;
#X obj 976 496 *~;
#X obj 1052 496 *~;
#X obj 1130 496 *~;
#X obj 1219 496 *~;
#X obj 1315 497 *~;
#X obj 994 424 r fx_4_1;
#X obj 1079 425 r fx_4_2;
#X obj 1161 427 r fx_4_3;
#X obj 1243 428 r fx_4_4;
#X obj 1327 430 r fx_4_5;
#X obj 1407 432 r fx_4_6;
#X obj 906 596 s~ fx4_1M;
#X obj 990 598 s~ fx4_2M;
#X obj 1067 603 s~ fx4_3M;
#X obj 1148 603 s~ fx4_4M;
#X obj 1227 605 s~ fx4_5M;
#X obj 1320 604 s~ fx4_6M;
#X obj 1251 25 inlet~;
#X obj 1283 180 *~;
#X obj 1370 180 *~;
#X obj 1446 180 *~;
#X obj 1524 180 *~;
#X obj 1613 180 *~;
#X obj 1709 181 *~;
#X obj 1388 108 r fx_5_1;
#X obj 1473 109 r fx_5_2;
#X obj 1555 112 r fx_5_3;
#X obj 1637 112 r fx_5_4;
#X obj 1721 114 r fx_5_5;
#X obj 1801 116 r fx_5_6;
#X obj 1300 280 s~ fx5_1M;
#X obj 1385 282 s~ fx5_2M;
#X obj 1461 288 s~ fx5_3M;
#X obj 1542 287 s~ fx5_4M;
#X obj 1621 289 s~ fx5_5M;
#X obj 1714 288 s~ fx5_6M;
#X obj 1507 341 inlet~;
#X obj 1539 496 *~;
#X obj 1626 496 *~;
#X obj 1702 496 *~;
#X obj 1780 496 *~;
#X obj 1869 496 *~;
#X obj 1965 497 *~;
#X obj 1644 424 r fx_6_1;
#X obj 1729 425 r fx_6_2;
#X obj 1811 428 r fx_6_3;
#X obj 1893 428 r fx_6_4;
#X obj 1977 430 r fx_6_5;
#X obj 2055 432 r fx_6_6;
#X obj 1556 596 s~ fx6_1M;
#X obj 1641 598 s~ fx6_2M;
#X obj 1717 604 s~ fx6_3M;
#X obj 1798 603 s~ fx6_4M;
#X obj 1877 605 s~ fx6_5M;
#X obj 1970 604 s~ fx6_6M;
#X obj 155 995 delwrite~ fxDelay 500;
#X obj 347 995 delwrite~ fxReverb 0;
#X obj 782 995 delwrite~ fxRingMod 0;
#X obj 993 995 delwrite~ fxAmpMod 0;
#X obj 1186 995 delwrite~ fxChorus 0;
#X obj 556 995 delwrite~ fxDistortion 0;
#X obj 157 697 r~ fx1_1M;
#X obj 169 725 r~ fx2_1M;
#X obj 183 752 r~ fx3_1M;
#X obj 196 780 r~ fx4_1M;
#X obj 212 806 r~ fx5_1M;
#X obj 226 835 r~ fx6_1M;
#X obj 366 697 r~ fx1_2M;
#X obj 378 725 r~ fx2_2M;
#X obj 392 753 r~ fx3_2M;
#X obj 405 780 r~ fx4_2M;
#X obj 421 806 r~ fx5_2M;
#X obj 435 835 r~ fx6_2M;
#X obj 584 699 r~ fx1_3M;
#X obj 596 727 r~ fx2_3M;
#X obj 610 754 r~ fx3_3M;
#X obj 623 782 r~ fx4_3M;
#X obj 639 807 r~ fx5_3M;
#X obj 653 837 r~ fx6_3M;
#X obj 792 705 r~ fx1_4M;
#X obj 804 733 r~ fx2_4M;
#X obj 818 760 r~ fx3_4M;
#X obj 831 788 r~ fx4_4M;
#X obj 847 814 r~ fx5_4M;
#X obj 861 843 r~ fx6_4M;
#X obj 995 693 r~ fx1_5M;
#X obj 1006 720 r~ fx2_5M;
#X obj 1021 748 r~ fx3_5M;
#X obj 1034 775 r~ fx4_5M;
#X obj 1050 802 r~ fx5_5M;
#X obj 1064 831 r~ fx6_5M;
#X obj 1177 696 r~ fx1_6M;
#X obj 1189 725 r~ fx2_6M;
#X obj 1203 752 r~ fx3_6M;
#X obj 1216 779 r~ fx4_6M;
#X obj 1232 805 r~ fx5_6M;
#X obj 1246 834 r~ fx6_6M;
#X obj 1493 784 vu 15 120 empty empty -1 -8 0 10 -66577 -1 1 0;
#X obj 1498 666 env~;
#X obj 1500 697 - 100;
#X obj 195 882 *~;
#X obj 308 718 vsl 15 140 0 1 0 0 empty jaFXVolume empty 0 -9 0 10
-262144 -1 -1 13900 1;
#X obj 397 883 *~;
#X obj 510 719 vsl 15 140 0 1 0 0 empty jaFXVolume empty 0 -9 0 10
-262144 -1 -1 13900 1;
#X obj 727 715 vsl 15 140 0 1 0 0 empty jaFXVolume empty 0 -9 0 10
-262144 -1 -1 13900 1;
#X obj 820 886 *~;
#X obj 933 722 vsl 15 140 0 1 0 0 empty jaFXVolume empty 0 -9 0 10
-262144 -1 -1 13900 1;
#X obj 1026 877 *~;
#X obj 1139 713 vsl 15 140 0 1 0 0 empty jaFXVolume empty 0 -9 0 10
-262144 -1 -1 13900 1;
#X obj 1207 880 *~;
#X obj 1320 716 vsl 15 140 0 1 0 0 empty jaFXVolume empty 0 -9 0 10
-262144 -1 -1 13900 1;
#X obj 614 879 *~ 0.015;
#X text 76 33 Receives from each source;
#X text 242 94 Receives volume from each fader at the tracks;
#X text 54 251 Sends audio to the mixing-stage at the bottom of this
patch;
#X text 100 659 All sends are mixed together here \, and added to its
FX.;
#X connect 0 0 7 0;
#X connect 0 0 8 0;
#X connect 0 0 9 0;
#X connect 0 0 10 0;
#X connect 0 0 11 0;
#X connect 0 0 12 0;
#X connect 1 0 7 1;
#X connect 2 0 8 1;
#X connect 3 0 9 1;
#X connect 4 0 10 1;
#X connect 5 0 11 1;
#X connect 6 0 12 1;
#X connect 7 0 13 0;
#X connect 8 0 14 0;
#X connect 9 0 15 0;
#X connect 10 0 16 0;
#X connect 11 0 17 0;
#X connect 12 0 18 0;
#X connect 19 0 20 0;
#X connect 19 0 21 0;
#X connect 19 0 22 0;
#X connect 19 0 23 0;
#X connect 19 0 24 0;
#X connect 19 0 25 0;
#X connect 20 0 32 0;
#X connect 21 0 33 0;
#X connect 22 0 34 0;
#X connect 23 0 35 0;
#X connect 24 0 36 0;
#X connect 25 0 37 0;
#X connect 26 0 20 1;
#X connect 27 0 21 1;
#X connect 28 0 22 1;
#X connect 29 0 23 1;
#X connect 30 0 24 1;
#X connect 31 0 25 1;
#X connect 38 0 39 0;
#X connect 38 0 40 0;
#X connect 38 0 41 0;
#X connect 38 0 42 0;
#X connect 38 0 43 0;
#X connect 38 0 44 0;
#X connect 39 0 51 0;
#X connect 40 0 52 0;
#X connect 41 0 53 0;
#X connect 42 0 54 0;
#X connect 43 0 55 0;
#X connect 44 0 56 0;
#X connect 45 0 39 1;
#X connect 46 0 40 1;
#X connect 47 0 41 1;
#X connect 48 0 42 1;
#X connect 49 0 43 1;
#X connect 50 0 44 1;
#X connect 57 0 58 0;
#X connect 57 0 59 0;
#X connect 57 0 60 0;
#X connect 57 0 61 0;
#X connect 57 0 62 0;
#X connect 57 0 63 0;
#X connect 58 0 70 0;
#X connect 59 0 71 0;
#X connect 60 0 72 0;
#X connect 61 0 73 0;
#X connect 62 0 74 0;
#X connect 63 0 75 0;
#X connect 64 0 58 1;
#X connect 65 0 59 1;
#X connect 66 0 60 1;
#X connect 67 0 61 1;
#X connect 68 0 62 1;
#X connect 69 0 63 1;
#X connect 76 0 77 0;
#X connect 76 0 78 0;
#X connect 76 0 79 0;
#X connect 76 0 80 0;
#X connect 76 0 81 0;
#X connect 76 0 82 0;
#X connect 77 0 89 0;
#X connect 78 0 90 0;
#X connect 79 0 91 0;
#X connect 80 0 92 0;
#X connect 81 0 93 0;
#X connect 82 0 94 0;
#X connect 83 0 77 1;
#X connect 84 0 78 1;
#X connect 85 0 79 1;
#X connect 86 0 80 1;
#X connect 87 0 81 1;
#X connect 88 0 82 1;
#X connect 95 0 96 0;
#X connect 95 0 97 0;
#X connect 95 0 98 0;
#X connect 95 0 99 0;
#X connect 95 0 100 0;
#X connect 95 0 101 0;
#X connect 96 0 108 0;
#X connect 97 0 109 0;
#X connect 98 0 110 0;
#X connect 99 0 111 0;
#X connect 100 0 112 0;
#X connect 101 0 113 0;
#X connect 102 0 96 1;
#X connect 103 0 97 1;
#X connect 104 0 98 1;
#X connect 105 0 99 1;
#X connect 106 0 100 1;
#X connect 107 0 101 1;
#X connect 120 0 159 0;
#X connect 121 0 159 0;
#X connect 122 0 159 0;
#X connect 123 0 159 0;
#X connect 124 0 159 0;
#X connect 125 0 159 0;
#X connect 126 0 161 0;
#X connect 127 0 161 0;
#X connect 128 0 161 0;
#X connect 129 0 161 0;
#X connect 130 0 161 0;
#X connect 131 0 161 0;
#X connect 132 0 170 0;
#X connect 133 0 170 0;
#X connect 134 0 170 0;
#X connect 135 0 170 0;
#X connect 136 0 170 0;
#X connect 137 0 170 0;
#X connect 138 0 164 0;
#X connect 139 0 164 0;
#X connect 140 0 164 0;
#X connect 141 0 164 0;
#X connect 142 0 164 0;
#X connect 143 0 164 0;
#X connect 144 0 166 0;
#X connect 145 0 166 0;
#X connect 146 0 166 0;
#X connect 147 0 166 0;
#X connect 148 0 166 0;
#X connect 149 0 166 0;
#X connect 150 0 168 0;
#X connect 151 0 168 0;
#X connect 152 0 168 0;
#X connect 153 0 168 0;
#X connect 154 0 168 0;
#X connect 155 0 168 0;
#X connect 157 0 158 0;
#X connect 158 0 156 0;
#X connect 159 0 114 0;
#X connect 160 0 159 1;
#X connect 161 0 115 0;
#X connect 162 0 161 1;
#X connect 163 0 170 1;
#X connect 164 0 116 0;
#X connect 165 0 164 1;
#X connect 166 0 117 0;
#X connect 167 0 166 1;
#X connect 168 0 118 0;
#X connect 169 0 168 1;
#X connect 170 0 119 0;
#X restore 230 301 pd fxRouting;
#X f 31;
#X obj 485 97 r master_fx1;
#X obj 579 97 r master_fx2;
#X obj 674 97 r master_fx3;
#X obj 768 97 r master_fx4;
#X obj 863 97 r master_fx5;
#X obj 958 97 r master_fx6;
#N canvas 555 311 885 520 jaScrubberLooper1 0;
#X obj 468 387 *~;
#X floatatom 486 325 5 0 0 0 - - -;
#X obj 468 164 vline~;
#X floatatom 469 188 15 0 0 0 - - -;
#X msg 468 139 \$1 100;
#X obj 190 342 *~;
#X obj 190 405 outlet~;
#X obj 12 187 sel 1;
#X obj 190 285 outlet~;
#X obj 190 120 spigot;
#X obj 7 225 s~ overdubLooper1;
#X obj 190 206 tabplay~ looper1, f 20;
#X obj 468 265 tabread4~ looper1, f 18;
#X obj 468 113 r jaTimeLineScrubber1;
#X obj 486 293 r jaScrubberVolume1;
#X obj 228 52 r loopLooper1;
#X obj 12 158 r loopLooper1;
#X text 100 119 Loop ON/OFF;
#X text 460 86 Scrubs the playback of audio from the looper.;
#X connect 0 0 6 0;
#X connect 1 0 0 1;
#X connect 1 0 5 1;
#X connect 2 0 12 0;
#X connect 3 0 11 0;
#X connect 4 0 2 0;
#X connect 5 0 6 0;
#X connect 7 0 11 0;
#X connect 9 0 11 0;
#X connect 11 0 5 0;
#X connect 11 0 8 0;
#X connect 11 0 10 0;
#X connect 11 1 9 0;
#X connect 12 0 0 0;
#X connect 12 0 8 0;
#X connect 13 0 3 0;
#X connect 13 0 4 0;
#X connect 14 0 1 0;
#X connect 15 0 9 1;
#X connect 16 0 7 0;
#X coords 0 0 1 1 85 60 0;
#X restore 230 344 pd jaScrubberLooper1;
#N canvas 388 94 786 651 jaRecording1 0;
#X obj 16 314 adc~;
#X obj 16 338 *~;
#X floatatom 34 288 5 0 0 0 - - -;
#X msg 209 284 start;
#X msg 209 252 stop;
#X obj 209 133 bng 15 250 50 0 empty empty empty 17 7 0 10 -262144
-1 -1;
#X obj 367 237 bng 15 250 50 0 empty empty empty 17 7 0 10 -262144
-1 -1;
#X obj 209 106 sel 1, f 23;
#X floatatom 583 127 5 0 0 0 - - -;
#X obj 583 150 expr 44100 * $f1;
#X floatatom 583 174 15 0 0 0 - - -;
#X text 26 240 amplifies input;
#X msg 583 102 4;
#X obj 34 261 r jaInputAmp;
#X obj 583 59 r jaLoadBang;
#X obj 583 82 bng 15 250 50 0 empty empty empty 17 7 0 10 -262144 -1
-1;
#X obj 209 73 tgl 15 0 empty empty empty 17 7 0 10 -262144 -1 -1 0
1;
#X obj 65 88 metro 1200;
#X obj 209 503 *~ \$1;
#X obj 243 443 spigot;
#X msg 242 410 1;
#X obj 209 37 r jaStartRecording1;
#X obj 65 116 s jaImRecording1;
#X obj 583 204 s jaScrubberLooper1;
#X obj 209 357 tabwrite~ looper1;
#X obj 209 477 r~ overdubLooper1;
#X obj 281 391 r overdub1;
#X msg 583 243 \; looper1 resize \$1;
#X obj 367 544 ==;
#X floatatom 385 519 5 0 0 0 - gate_0 -;
#X text 370 494 Start looping after recording.;
#X obj 367 571 s start1;
#X text 10 63 Recording indicator light;
#X text 221 335 Writes to array;
#X text 207 218 Sends start and stop signals for recording;
#X text 208 12 Gets start-bang from GUI;
#X text 583 36 Resizes the loopers length;
#X text 277 414 Enables overdubs to be done;
#X connect 0 0 1 0;
#X connect 1 0 24 0;
#X connect 2 0 1 1;
#X connect 3 0 24 0;
#X connect 4 0 24 0;
#X connect 5 0 3 0;
#X connect 6 0 4 0;
#X connect 6 0 28 0;
#X connect 7 0 5 0;
#X connect 7 1 6 0;
#X connect 8 0 9 0;
#X connect 9 0 10 0;
#X connect 10 0 23 0;
#X connect 10 0 27 0;
#X connect 12 0 8 0;
#X connect 13 0 2 0;
#X connect 14 0 15 0;
#X connect 15 0 12 0;
#X connect 16 0 7 0;
#X connect 16 0 17 0;
#X connect 17 0 22 0;
#X connect 18 0 24 0;
#X connect 19 0 18 1;
#X connect 20 0 19 0;
#X connect 21 0 16 0;
#X connect 25 0 18 0;
#X connect 26 0 19 1;
#X connect 26 0 20 0;
#X connect 28 0 31 0;
#X connect 29 0 28 1;
#X restore 104 512 pd jaRecording1;
#X obj 367 405 *~ 1;
#X text 67 282 Routes all of the fx-channels;
#X text 652 43 All fx originate from this patch;
#X text 32 347 The scrubbers lets you;
#X text 23 366 playback recorded audio.;
#X obj 464 583 cnv 15 150 80 empty empty empty 20 12 0 14 -191407 -66577
0;
#N canvas 342 44 553 485 writeToFile 0;
#X obj 388 59 inlet~;
#X obj 127 45 r RecButton;
#X msg 125 366 start;
#X msg 200 366 stop;
#X obj 126 196 bng 15 250 50 0 empty empty empty 17 7 0 10 -262144
-1 -1;
#X obj 200 196 bng 15 250 50 0 empty empty empty 17 7 0 10 -262144
-1 -1;
#X obj 126 166 sel 1, f 11;
#X obj 127 72 tgl 15 0 empty empty empty 17 7 0 10 -262144 -1 -1 0
1;
#X msg 158 275 open myRecording.wav;
#X obj 126 233 t b b;
#X obj 127 104 metro 50;
#X obj 127 128 tabwrite~ capture_oscillo;
#X obj 385 385 writesf~ 2;
#X obj 454 73 inlet~;
#X obj 211 98 *~ 1.5;
#X text 398 216 Stereo!;
#X text 171 245 Writes to 'myRecording.wav';
#X text 9 88 Bonus:;
#X text 8 127 While recording!;
#X text 8 110 Oscilloscope;
#X connect 0 0 12 0;
#X connect 0 0 14 0;
#X connect 1 0 7 0;
#X connect 2 0 12 0;
#X connect 3 0 12 0;
#X connect 4 0 9 0;
#X connect 5 0 3 0;
#X connect 6 0 4 0;
#X connect 6 1 5 0;
#X connect 7 0 6 0;
#X connect 7 0 10 0;
#X connect 8 0 12 0;
#X connect 9 0 2 0;
#X connect 9 1 8 0;
#X connect 10 0 11 0;
#X connect 13 0 12 1;
#X connect 13 0 14 0;
#X connect 14 0 11 0;
#X restore 479 633 pd writeToFile;
#X text 482 600 To write to disk;
#X obj 462 327 cnv 15 350 230 empty empty empty 20 12 0 14 -241124
-66577 0;
#X obj 583 522 dac~;
#X obj 688 350 r master_volume;
#X floatatom 698 378 5 0 0 0 - - -;
#X obj 481 424 *~, f 30;
#X text 530 387 Master Section;
#X obj 866 340 loadbang;
#X msg 902 393 \; pd dsp 0 \;;
#X msg 866 456 \; pd dsp 1 \; jaInputGain 2 \; jaLoadBang 1 \; jaScrubberVolumes
0.5 \; jaFXVolume 1 \;;
#X text 50 484 These patches lets you record audio.;
#X obj 632 459 catch~ fxL;
#X text 133 207 The sampleSlicer fetches the pre-loaded samples.;
#X obj 711 459 catch~ fxR;
#X connect 5 0 15 2;
#X connect 5 1 15 3;
#X connect 5 2 15 4;
#X connect 5 3 15 5;
#X connect 5 4 36 0;
#X connect 7 0 15 1;
#X connect 7 1 24 0;
#X connect 8 0 36 0;
#X connect 16 0 8 0;
#X connect 17 0 8 1;
#X connect 18 0 8 2;
#X connect 19 0 8 3;
#X connect 20 0 8 4;
#X connect 21 0 8 5;
#X connect 22 0 15 0;
#X connect 22 1 24 0;
#X connect 24 0 36 0;
#X connect 34 0 35 0;
#X connect 34 0 36 1;
#X connect 36 0 33 0;
#X connect 36 0 33 1;
#X connect 36 0 30 0;
#X connect 36 0 30 1;
#X connect 38 0 40 0;
#X connect 42 0 33 0;
#X connect 42 0 30 0;
#X connect 44 0 33 1;
#X connect 44 0 30 1;
#X restore 1067 1069 pd machine;
#X obj 14 4 cnv 15 1150 120 empty empty empty 20 12 0 14 -183568 -66577
0;
#X obj 14 128 cnv 15 1150 120 empty empty empty 20 12 0 14 -183568
-66577 0;
#N canvas 0 25 450 278 (subpatch) 0;
#X array looper2 176400 float 2;
#X coords 0 1 176400 -1 600 85 1 0 0;
#X restore 248 143 graph;
#X obj 197 143 tgl 50 0 jaStartRecording2 empty Start/Stop -70 20 0
10 -258113 -1 -1 0 1;
#X obj 252 229 hsl 594 15 0 176400 0 0 jaTimeLineScrubber jaTimeLine
empty -2 24 0 10 -221094 -1 -1 0 1;
#X obj 197 194 bng 50 250 50 0 empty jaImRecording empty -20 60 0 10
-1 -258113 -1;
#X obj 848 145 vsl 15 80 0 1 0 0 jaScrubberVolume2 jaScrubberVolumes
empty 0 -9 0 10 -225191 -1 -1 3950 1;
#X obj 49 205 tgl 25 0 loopLooper2 start2 Loop_ON/OFF -12 -10 0 8 -261682
-45076 -1 0 1;
#X obj 48 162 tgl 25 0 overdub2 empty Overdub_On/Off -20 -10 0 8 -261682
-1 -1 0 1;
#N canvas 0 25 450 278 (subpatch) 0;
#X array looper1 176400 float 2;
#X coords 0 1 176400 -1 600 85 1 0 0;
#X restore 245 20 graph;
#X obj 249 105 hsl 594 15 0 176400 0 0 jaTimeLineScrubber1 jaTimeLine3
empty -2 24 0 10 -221094 -1 -1 0 1;
#X obj 845 22 vsl 15 80 0 1 0 0 jaScrubberVolume1 jaScrubberVolumes
empty 0 -9 0 10 -221094 -1 -1 3950 1;
#X obj 195 19 tgl 50 0 jaStartRecording1 empty Start/Stop -70 20 0
10 -258113 -1 -1 0 1;
#X obj 195 70 bng 50 250 50 0 empty jaImRecording1 empty -20 60 0 10
-1 -258113 -1;
#X obj 884 161 vsl 15 64 0 1 0 0 fx_2_1 empty delay -6 -9 0 10 -204786
-1 -1 0 1;
#X obj 938 161 vsl 15 64 0 1 0 0 fx_2_2 empty reverb -10 -9 0 10 -262130
-1 -1 0 1;
#X obj 986 161 vsl 15 64 0 1 0 0 fx_2_3 empty dist -5 -9 0 10 -162280
-1 -1 0 1;
#X obj 1034 161 vsl 15 64 0 1 0 0 fx_2_4 empty ring_mod -15 -9 0 10
-261234 -1 -1 0 1;
#X obj 1085 161 vsl 15 64 0 1 0 0 fx_2_5 empty amp_mod -12 -9 0 10
-261682 -1 -1 0 1;
#X obj 1134 161 vsl 15 64 0 1 0 0 fx_2_6 empty chorus -10 -9 0 10 -203904
-1 -1 0 1;
#X obj 48 81 tgl 25 0 loopLooper1 start1 Loop_ON/OFF -12 -10 0 8 -261682
-45076 -1 0 1;
#X obj 49 35 tgl 25 0 overdub1 empty Overdub_On/Off -20 -10 0 8 -261682
-1 -1 0 1;
#X obj 885 33 vsl 15 64 0 1 0 0 fx_1_1 empty delay -6 -9 0 10 -204786
-1 -1 0 1;
#X obj 931 33 vsl 15 64 0 1 0 0 fx_1_2 empty reverb -10 -9 0 10 -262130
-1 -1 0 1;
#X obj 978 33 vsl 15 64 0 1 0 0 fx_1_3 empty dist -4 -9 0 10 -162280
-1 -1 0 1;
#X obj 1023 33 vsl 15 64 0 1 0 0 fx_1_4 empty ring_mod -15 -9 0 10
-261234 -1 -1 0 1;
#X obj 1075 33 vsl 15 64 0 1 0 0 fx_1_5 empty amp_mod -12 -9 0 10 -261682
-1 -1 0 1;
#X obj 1125 33 vsl 15 64 0 1 0 0 fx_1_6 empty chorus -10 -9 0 10 -203904
-1 -1 0 1;
#X obj 14 259 cnv 15 1150 134 empty empty empty 20 12 0 14 -109557
-66577 0;
#X obj 14 403 cnv 15 1150 134 empty empty empty 20 12 0 14 -109557
-66577 0;
#X obj 14 548 cnv 15 1150 134 empty empty empty 20 12 0 14 -109557
-66577 0;
#X obj 14 695 cnv 15 1150 134 empty empty empty 20 12 0 14 -109557
-66577 0;
#N canvas 0 22 450 278 (subpatch) 0;
#X array sample1 109202 float 0;
#X coords 0 1 109201 -1 600 101 1 0 0;
#X restore 245 279 graph;
#N canvas 0 22 450 278 (subpatch) 0;
#X array sample2 769746 float 2;
#X coords 0 1 769746 -1 600 101 1 0 0;
#X restore 243 423 graph;
#N canvas 0 22 450 278 (subpatch) 0;
#X array sample3 67454 float 2;
#X coords 0 1 67454 -1 600 101 1 0 0;
#X restore 243 567 graph;
#N canvas 0 22 450 278 (subpatch) 0;
#X array sample4 662374 float 2;
#X coords 0 1 662374 -1 600 101 1 0 0;
#X restore 243 714 graph;
#X obj 195 330 bng 50 250 50 0 slicer1Changebang empty Subdivision
-75 20 0 10 -159808 -4032 -1;
#X obj 192 474 bng 50 250 50 0 slicer2Changebang empty Subdivision
-75 20 0 10 -159808 -4032 -1;
#X obj 193 618 bng 50 250 50 0 slicer3Changebang empty Subdivision
-75 20 0 10 -159808 -4032 -1;
#X obj 193 765 bng 50 250 50 0 slicer4Changebang empty Subdivision
-75 20 0 10 -159808 -4032 -1;
#X obj 843 716 vsl 15 96 0 1 0 0 sampleVolume4 jaScrubberVolumes empty
0 -9 0 10 -216934 -1 -1 4750 1;
#X obj 843 569 vsl 15 96 0 1 0 0 sampleVolume3 jaScrubberVolumes empty
0 -9 0 10 -216869 -1 -1 4750 1;
#X obj 843 425 vsl 15 96 0 1 0 0 sampleVolume2 jaScrubberVolumes empty
0 -9 0 10 -221094 -1 -1 4750 1;
#X obj 845 281 vsl 15 96 0 1 0 0 sampleVolume1 jaScrubberVolumes empty
0 -9 0 10 -221094 -1 -1 4750 1;
#X obj 195 279 tgl 50 0 startSlicer1 empty Start/Stop -70 20 0 10 -258113
-159808 -1 0 1;
#X obj 193 714 tgl 50 0 startSlicer4 empty Start/Stop -70 20 0 10 -258113
-159808 -1 0 1;
#X obj 193 567 tgl 50 0 startSlicer3 empty Start/Stop -70 20 0 10 -258113
-159808 -1 0 1;
#X obj 192 423 tgl 50 0 startSlicer2 empty Start/Stop -70 20 0 10 -258113
-159808 -1 0 1;
#X obj 885 298 vsl 15 64 0 1 0 0 fx_3_1 empty delay -6 -9 0 10 -204786
-1 -1 0 1;
#X obj 934 298 vsl 15 64 0 1 0 0 fx_3_2 empty reverb -10 -9 0 10 -262130
-1 -1 0 1;
#X obj 984 298 vsl 15 64 0 1 0 0 fx_3_3 empty dist -5 -9 0 10 -162280
-1 -1 0 1;
#X obj 1033 298 vsl 15 64 0 1 0 0 fx_3_4 empty ring_mod -15 -9 0 10
-261234 -1 -1 0 1;
#X obj 1086 298 vsl 15 64 0 1 0 0 fx_3_5 empty amp_mod -12 -9 0 10
-261682 -1 -1 0 1;
#X obj 1137 298 vsl 15 64 0 1 0 0 fx_3_6 empty chorus -10 -9 0 10 -203904
-1 -1 0 1;
#X obj 882 438 vsl 15 64 0 1 0 0 fx_4_1 empty delay -6 -9 0 10 -204786
-1 -1 0 1;
#X obj 933 438 vsl 15 64 0 1 0 0 fx_4_2 empty reverb -10 -9 0 10 -262130
-1 -1 0 1;
#X obj 982 438 vsl 15 64 0 1 0 0 fx_4_3 empty dist -5 -9 0 10 -162280
-1 -1 0 1;
#X obj 1029 438 vsl 15 64 0 1 0 0 fx_4_4 empty ring_mod -15 -9 0 10
-261234 -1 -1 0 1;
#X obj 1083 438 vsl 15 64 0 1 0 0 fx_4_5 empty amp_mod -12 -9 0 10
-261682 -1 -1 0 1;
#X obj 1134 438 vsl 15 64 0 1 0 0 fx_4_6 empty chorus -10 -9 0 10 -203904
-1 -1 0 1;
#X obj 880 586 vsl 15 64 0 1 0 0 fx_5_1 empty delay -6 -9 0 10 -204786
-1 -1 0 1;
#X obj 931 586 vsl 15 64 0 1 0 0 fx_5_2 empty reverb -10 -9 0 10 -262130
-1 -1 0 1;
#X obj 982 586 vsl 15 64 0 1 0 0 fx_5_3 empty dist -5 -9 0 10 -162280
-1 -1 0 1;
#X obj 1029 586 vsl 15 64 0 1 0 0 fx_5_4 empty ring_mod -15 -9 0 10
-261234 -1 -1 0 1;
#X obj 1083 586 vsl 15 64 0 1 0 0 fx_5_5 empty amp_mod -12 -9 0 10
-261682 -1 -1 0 1;
#X obj 1135 586 vsl 15 64 0 1 0 0 fx_5_6 empty chorus -10 -9 0 10 -203904
-1 -1 0 1;
#X obj 879 730 vsl 15 64 0 1 0 0 fx_6_1 empty delay -6 -9 0 10 -204786
-1 -1 0 1;
#X obj 930 730 vsl 15 64 0 1 0 0 fx_6_2 empty reverb -10 -9 0 10 -262130
-1 -1 0 1;
#X obj 982 730 vsl 15 64 0 1 0 0 fx_6_3 empty dist -5 -9 0 10 -162280
-1 -1 0 1;
#X obj 1029 730 vsl 15 64 0 1 0 0 fx_6_4 empty ring_mod -15 -9 0 10
-261234 -1 -1 0 1;
#X obj 1083 730 vsl 15 64 0 1 0 0 fx_6_5 empty amp_mod -12 -9 0 10
-261682 -1 -1 0 1;
#X obj 1136 730 vsl 15 64 0 1 0 0 fx_6_6 empty chorus -10 -9 0 10 -203904
-1 -1 0 1;
#X obj 14 681 cnv 15 1150 13 empty empty empty 20 12 0 14 -1 -66577
0;
#X obj 14 537 cnv 15 1150 13 empty empty empty 20 12 0 14 -1 -66577
0;
#X obj 14 125 cnv 15 1150 13 empty empty empty 20 12 0 14 -1 -66577
0;
#X obj 14 2 cnv 15 1150 13 empty empty empty 20 12 0 14 -1 -66577 0
;
#X obj 14 247 cnv 15 1150 13 empty empty empty 20 12 0 14 -1 -66577
0;
#X obj 14 394 cnv 15 1150 13 empty empty empty 20 12 0 14 -1 -66577
0;
#X obj 14 829 cnv 15 1150 200 empty empty empty 20 12 0 14 -247332
-66577 0;
#X obj 555 857 cnv 15 600 150 empty empty empty 20 12 0 14 -187312
-66577 0;
#X obj 578 919 vsl 15 64 0 1 0 0 master_fx1 jaFXVolume delay -6 -9
0 10 -204786 -1 -1 6300 1;
#X obj 629 919 vsl 15 64 0 1 0 0 master_fx2 jaFXVolume reverb -10 -9
0 10 -262130 -1 -1 6300 1;
#X obj 686 919 vsl 15 64 0 1 0 0 master_fx3 jaFXVolume distortion -19
-9 0 10 -162280 -1 -1 6300 1;
#X obj 748 919 vsl 15 64 0 1 0 0 master_fx4 jaFXVolume ring_mod -15
-9 0 10 -261234 -1 -1 6300 1;
#X obj 806 919 vsl 15 64 0 1 0 0 master_fx5 jaFXVolume amp_mod -12
-9 0 10 -261682 -1 -1 6300 1;
#X obj 857 920 vsl 15 64 0 1 0 0 master_fx6 jaFXVolume chorus -10 -9
0 10 -203904 -1 -1 6300 1;
#X text 682 872 Master-Section;
#X obj 1072 889 vsl 45 100 0 1 0 0 master_volume jaScrubberVolumes
Master_Volume -30 -12 0 14 -127106 -1 -1 4950 1;
#X obj 963 887 vsl 30 100 0 4 0 0 jaInputAmp jaInputGain Input_Gain
-24 -9 0 14 -262144 -1 -1 4950 1;
#X obj 57 882 tgl 100 0 RecButton empty Record 6 -20 0 24 -258113 -1
-110722 0 1;
#N canvas 0 22 450 278 (subpatch) 0;
#X array capture_oscillo 1000 float 2;
#X coords 0 1 1000 -1 300 150 1 0 0;
#X restore 205 862 graph;
#X text 45 987 to myRecording.wav;
#X obj 15 827 cnv 15 1150 13 empty empty empty 20 12 0 14 -1 -66577
0;
#X obj 14 1028 cnv 15 1150 13 empty empty empty 20 12 0 14 -1 -66577
0;
#X obj 1165 2 cnv 15 15 1039 empty empty empty 20 12 0 14 -1 -66577
0;
#X obj 1 2 cnv 15 15 1039 empty empty empty 20 12 0 14 -1 -66577 0
;
